<?xml version="1.0" encoding="UTF-8"?>
<svg id="Layer_1" xmlns="http://www.w3.org/2000/svg" version="1.1" viewBox="0 0 280 280">
  <!-- Generator: Adobe Illustrator 29.5.1, SVG Export Plug-In . SVG Version: 2.1.0 Build 141)  -->
  <defs>
    <style>
      .st0 {
        fill: #eaa149;
      }

      .st1 {
        fill: #f9c485;
      }

      .st2 {
        fill: #fef3c6;
      }

      .st3 {
        fill: #ba4a13;
      }
    </style>
  </defs>
  <path class="st0" d="M135.96,19.52c-21.77-2.62-36.67.98-40.32,1.92-3.85.99-20.52,5.52-37.63,18.81-16.17,12.56-10.11,15.37-37.63,46.46-5.77,6.52-9.17,9.93-9.21,15.36-.09,10.64,12.81,15.56,25.34,29.18,11.41,12.4,9.43,17.79,20.73,37.63,14.15,24.84,30.87,40.29,43.77,52.22,6.22,5.75,21.04,15.48,50.68,34.94,2.97,1.95,8.27,5.34,15.36,5.38,11.28.06,19.74-8.42,25.72-14.59,18.75-19.34,30.4-33.79,38.01-42.62,27.06-31.38,38.59-32.75,38.01-45.31-.66-14.29-16.08-23.15-12.29-39.55,1.25-5.42,3.25-5.79,3.84-10.37,1.73-13.45-13.45-26.03-24.96-34.94-43.4-33.59-65.1-50.39-99.44-54.52Z"/>
  <path class="st2" d="M260.36,108.98c-.59,4.58-2.59,4.94-3.84,10.37-5.48,5.29-12.34,13.71-13.89,25.1-.92,6.74-.39,7.71,0,13.93.75,12.16-12.63,25.86-25.01,30.65-10.08,3.91-16.02.56-25.15,7.25-3.36,2.46-4.59,4.41-8.79,6.13-7.56,3.11-11.35-.02-15.94,2.87-6.42,4.04-6.47,14.83-6.47,16.63-.05,11.47,7.21,16.56,4.13,21.74-1.98,3.31-6.93,4.54-10.67,3.9-5.65-.97-8.36-6.18-8.61-6.69-2.94-5.87,1.53-9,0-18.39-.36-2.2-1.62-8.19-6.11-13.38-2.05-2.36-3.54-3.14-7.71-6.13-9.41-6.74-9.36-8.14-13.38-10.59-12.05-7.34-20.11.71-28.98-6.22-5.36-4.19-2.49-7.19-9.02-15.36-8.39-10.5-14.8-7.64-20.52-16.44-6.12-9.42-.44-15.25-7.25-22.73-5.55-6.1-11.24-4.34-15.05-11.15-3.02-5.4-.49-8.39-3.9-12.82-3.84-4.98-8.95-3.62-13.38-7.18-1.97-1.59-3.87-4.2-4.85-8.74,1.25-1.5,2.73-3.13,4.41-5.03,27.52-31.08,21.46-33.9,37.63-46.46,17.1-13.29,33.77-17.83,37.63-18.82,3.64-.94,18.54-4.54,40.32-1.92,34.34,4.13,56.04,20.93,99.44,54.52,11.51,8.91,26.69,21.49,24.96,34.94Z"/>
  <path class="st3" d="M139.75,26.08c-6.89-.9-13.79-.98-20.69-.32-7.29.63-14.58,2.01-21.22,5.05-10.37,4.6-19.69,13.26-23.77,23.82-3.44,8.67-3.3,17.87-1.77,26.9.25,1.23.55,2.73.88,3.94.11.46.27,1.12.42,1.56.56,2.03,1.34,4.21,2.1,6.18,6.64,16.14,19.48,31.16,31.62,44.23.83.89,1.9,1.96,2.73,2.83,10.67,11.42,24.35,20.12,38.4,27.35,4.83,2.54,9.81,4.94,14.9,7.49,1.83.91,2.57,3.14,1.66,4.97-.63,1.26-1.88,2-3.19,2.05-29.5.73-59.89-13.92-82.85-31.93-17.1-13.67-30.54-32.92-34.48-54.84-1.02-5.9-1.35-12-.87-17.97,1.07-19.04,10.87-37.13,26.92-47.42,7.99-5.18,16.94-8.62,26.3-10.18,7.4-1.27,14.91-1.21,22.31-.39,7.16.73,14.36,2.24,21.11,4.46,1.29.47.88,2.37-.5,2.22h0Z"/>
  <path class="st3" d="M186.79,168.32l2.87-.81c.88-.27,1.69-.54,2.42-.83.73-.28,1.38-.59,1.93-.91.56-.32,1.04-.63,1.43-.97.39-.33.75-.65,1.01-.97.26-.31.42-.57.64-.89.22-.32.54-.74,1.01-1.36l.38-.5.44-.55.49-.6.54-.64c.19-.22.38-.44.59-.67.21-.23.41-.45.64-.68.22-.23.44-.46.67-.68l.72-.67c.98-.89,2.03-1.71,3.12-2.45,2.19-1.47,4.54-2.6,6.94-3.34,2.4-.74,4.85-1.13,7.26-1.15h.9c.3.02.6.03.9.05.6.06,1.19.08,1.79.2,1.19.17,2.37.45,3.54.88,2.17.79,3.28,3.19,2.49,5.35-.2.55-.51,1.04-.89,1.44l-.27.28c-.79.83-1.58,1.5-2.33,2.17l-2.18,1.9c-1.4,1.21-2.68,2.32-3.85,3.39-1.18,1.06-2.22,2.08-3.2,3.07-.49.5-.96.99-1.42,1.49l-1.51,1.66-.44.5-.49.53-.54.59-.61.63c-.85.88-1.94,1.9-3.25,2.86-.33.24-.66.48-1.02.7-.35.22-.71.45-1.08.65-.74.41-1.5.77-2.26,1.07-1.52.6-3.06.96-4.6,1.16-3.08.38-6.03-.02-8.56-.94-1.27-.46-2.44-1.04-3.52-1.72-1.08-.68-2.06-1.46-2.93-2.38-1.55-1.66-1.46-4.25.2-5.8.49-.46,1.06-.77,1.67-.95l.36-.1Z"/>
  <path class="st3" d="M119.12,50.59c-9.6,8.7-13.27,16.39-13.08,29.04-.21,15.95,4.93,31.08,15.54,43.55,2.29,2.85-.73,6.81-4.23,5.56-10.01-3.59-18.93-11.17-24.97-20.1-5.5-8.1-9.01-17.3-10.54-26.91-1.1-6.36-1.4-12.94.08-19.43,2.9-13.65,13.89-25.75,27.87-29.49,11.23-2.64,18,10.67,9.32,17.79Z"/>
  <path class="st3" d="M147.81,130.18c9.09-2.95,17.45-6.03,26.18-9.62,5.33-2.01,11.04-4.39,16.16-6.63,2.17-.95,5.27-2.18,7.38-3.15,3.51-1.58,7.01-3.51,9.39-6.63,7.93-10.58-2.54-27.14-8.67-36.56-5.42-7.86-12.14-14.88-19.75-20.66-2.55-1.93-5.21-3.72-7.97-5.33-1.05-.62-.17-2.31,1-1.63,13.79,8.73,26.14,19.9,35.5,33.32,6.27,8.65,11.29,17.34,10.52,28.48-.67,12.14-8.21,23.43-18.76,29.3-6.31,3.51-13.2,5.35-20.17,6.54-6.91,1.18-14.06,1.55-21,.29-3.51-.65-6.96-1.61-10.18-3.24-1.19-.6-1.67-2.06-1.07-3.26.31-.61.83-1.03,1.43-1.22h0Z"/>
  <path class="st1" d="M137.09,49.8c-2.96,5.79-4.34,11.78-3.47,18.01.63,3.74,1.86,7.55,3.94,10.79,1.25,1.96,2.92,3.74,4.98,5.02,7.95,4.99,19.11,3.86,28.47,2.97,3.91-.41,7.68-1.04,11.76-1.46,1.65-.25,2.9,1.51,1.94,2.77-8.04,10.56-23.61,14.75-37.22,11.74-6.81-1.43-13.46-4.77-17.77-9.91-7.35-8.59-8.62-21.9-3.81-31.7,1.95-3.92,4.71-7.51,8.33-10.26,1.54-1.15,3.72.43,2.84,2.03h0Z"/>
  <path class="st1" d="M143.39,70.06c-2.36-5.86-1.02-12.87,3.67-17.38,3.51-3.44,8.41-5.16,13.25-5.3,9.73-.38,21.01,6.63,21.36,17.15.09,2.84-.72,5.53-2.14,7.86-1.29,2.05-3.01,3.79-5.02,5.04-2.01,1.26-4.65.65-5.91-1.36-1.03-1.63-.76-3.54.27-5.01.91-1.55,1.79-3.28,1.59-5-.42-3.2-5.06-5.61-7.87-6.35-2.86-.67-6.19-.57-8.77.94-2.94,1.57-4.31,5.33-4.58,8.63-.39,3.14-4.67,3.68-5.85.78h0Z"/>
</svg>