<svg width="263" height="212" viewBox="0 0 263 212" fill="none" xmlns="http://www.w3.org/2000/svg">
<path d="M176.533 49.1963C171.803 40.5563 168.663 33.3663 166.613 28.2663C164.193 22.2263 161.973 15.7163 156.523 11.7663C153.043 9.24632 149.333 8.36632 149.333 8.36632C146.943 7.80632 146.663 8.39632 142.553 7.88632C140.223 7.59632 136.403 7.11632 131.903 5.86632C124.623 3.84632 125.303 2.50632 119.783 1.09632C117.503 0.506322 108.993 -1.55368 100.323 2.19632C98.8029 2.85632 97.6129 3.54632 96.8329 4.03632C94.4329 3.99632 91.5329 4.22632 88.3829 5.13632C77.8629 8.16632 72.2029 16.4963 70.3929 19.4563C68.4129 19.8663 65.6729 20.6463 62.6829 22.2063C61.8729 22.6363 59.2929 24.0263 56.5029 26.5363C52.0329 30.5463 49.5429 35.1363 48.1729 38.3663C52.0729 43.3563 58.6929 50.5463 68.7429 56.1763C85.9529 65.8163 102.693 64.9663 119.423 63.8863C132.213 63.0663 152.803 60.1463 176.533 49.1963Z" fill="#E2B16A"/>
<path d="M56.5129 26.5363C52.3829 26.1063 45.1529 25.9163 36.9929 28.8563C32.1329 30.6163 26.4929 32.6963 22.6529 38.1263C16.2729 47.1563 20.1329 58.7963 20.7329 60.5163C29.9629 72.3263 54.4129 100.236 96.1129 112.816C127.873 122.396 153.903 118.326 168.003 115.966C186.703 112.826 200.643 110.266 209.383 98.1563C221.173 81.8063 215.213 59.5163 214.173 55.6263C212.973 51.1363 210.573 42.5563 203.153 34.8163C197.473 28.8863 191.473 26.1163 187.063 24.1463C182.203 21.9663 173.723 18.9363 162.403 18.6863C163.173 20.3263 164.313 22.8063 165.593 25.8663C167.373 30.1263 168.263 32.7163 169.383 35.6463C170.583 38.7963 172.413 43.2663 175.043 48.6763C170.993 50.5163 164.743 53.0263 156.843 54.9063C146.433 57.3763 145.063 58.2763 109.533 55.5963C82.8229 53.5763 75.4229 50.3063 73.1029 49.2063C63.8529 44.8063 55.1429 38.1563 55.1429 38.1563C53.1129 36.6063 51.4629 35.2263 50.3029 34.2263C51.0329 32.9563 51.9829 31.5163 53.2029 30.0163C54.3429 28.6263 55.4829 27.4763 56.5029 26.5563L56.5129 26.5363Z" fill="#D1914B"/>
<path d="M209.383 183.456C214.893 182.666 219.373 182.256 222.413 182.036C229.783 181.496 232.353 181.756 235.203 179.906C238.883 177.516 240.123 173.526 241.123 170.426C247.413 151.046 247.913 156.976 252.023 141.526C256.673 124.036 254.033 123.946 258.183 114.526C259.363 111.836 261.393 107.726 261.973 101.736C262.363 97.7563 262.973 91.3863 259.363 88.2363C255.963 85.2663 252.043 87.9663 247.523 84.6863C244.623 82.5763 243.933 79.7863 242.783 77.3463C240.723 72.9663 236.103 67.3363 224.543 62.6563C219.493 102.926 214.433 143.196 209.383 183.466V183.456Z" fill="#D1914B"/>
<path opacity="0.7" d="M209.383 98.1563C200.643 110.266 186.703 112.826 167.993 115.956C153.903 118.326 127.873 122.386 96.1129 112.816C54.4129 100.236 29.9629 72.3263 20.7329 60.5163C20.1329 58.8063 16.2629 47.1563 22.6529 38.1163C26.4929 32.6863 32.1329 30.6163 36.9929 28.8563C45.1529 25.9063 52.3829 26.1063 56.5129 26.5363C59.3129 24.0263 61.8729 22.6363 62.6929 22.2063C65.6829 20.6263 68.4129 19.8563 70.4029 19.4463C72.2229 16.4863 77.8829 8.15632 88.3929 5.12632C91.5429 4.21632 94.4429 3.97632 96.8429 4.02632C97.6229 3.53632 98.8129 2.85632 100.343 2.19632C109.023 -1.55368 117.513 0.506322 119.803 1.09632C125.313 2.51632 124.653 3.84632 131.923 5.87632C136.413 7.11632 140.243 7.60632 142.573 7.88632C146.683 8.39632 146.973 7.80632 149.353 8.36632C149.353 8.36632 153.063 9.23632 156.543 11.7663C159.083 13.6163 160.913 16.0263 162.413 18.6863C173.733 18.9363 182.203 21.9663 187.073 24.1563C191.483 26.1263 197.493 28.8963 203.163 34.8263C210.583 42.5763 212.983 51.1463 214.173 55.6363C215.223 59.5263 221.173 81.8163 209.383 98.1763V98.1563Z" fill="white"/>
<path d="M17.1229 48.9963C15.2029 49.7563 7.52286 52.9363 2.91286 60.5863C0.36286 64.8063 -0.85714 69.7963 0.67286 86.7663C2.56286 107.796 5.42286 110.976 8.10286 133.726C9.20286 143.096 9.02286 145.146 10.7729 149.596C13.8029 157.276 19.9429 163.456 31.7129 172.406C42.6929 180.756 46.3629 179.326 68.3629 189.986C91.0629 200.976 93.1129 205.386 108.003 209.056C120.963 212.256 131.083 211.796 133.373 211.676C145.293 211.016 148.673 208.216 166.723 203.076C195.973 194.736 203.593 197.486 211.033 188.916C214.543 184.876 214.093 182.826 218.383 164.836C225.993 132.946 229.613 130.066 232.923 107.706C235.023 93.5663 235.103 84.4363 232.923 74.7963C231.753 69.6163 229.943 62.5663 224.323 55.3463C219.103 48.6363 213.013 44.9563 209.313 43.0963C210.973 47.6563 213.093 55.2363 212.733 64.6963C212.533 69.9463 212.163 80.4763 205.253 90.1263C199.083 98.7563 190.953 102.346 185.433 104.716C156.873 116.926 128.073 104.316 124.843 102.846C112.143 97.0563 112.993 93.3263 94.1729 78.9063C76.8329 65.6163 42.1229 39.0263 17.1329 48.9863L17.1229 48.9963Z" fill="#E2B16A"/>
<path opacity="0.7" d="M234.203 96.8463C231.353 98.3863 228.233 99.3463 224.803 99.4963C221.833 99.6263 218.823 99.4463 215.923 100.126C205.353 102.626 210.403 114.216 203.163 118.876C198.403 121.936 194.483 116.966 187.203 118.876C182.843 120.016 180.483 123.466 178.153 127.056C167.723 143.106 147.493 140.356 132.453 132.676C126.673 129.726 122.083 126.106 115.163 127.926C110.813 129.076 107.013 131.636 102.353 130.566C97.4228 129.446 93.0629 126.156 90.1528 122.086C87.0428 117.756 86.8628 112.556 85.8828 107.636C84.9028 102.706 79.9028 100.566 75.4828 103.156C70.2428 106.236 73.2928 113.256 67.9528 118.886C64.4228 122.606 58.3728 124.476 52.9828 123.056C45.9929 121.226 41.5228 114.336 41.7228 107.316C41.9228 100.676 43.2428 94.0463 43.6328 87.4063C43.7928 84.7563 44.0228 81.9863 42.7428 79.5663C38.7528 71.9963 27.5428 69.6463 19.8428 68.8763C15.6328 68.4463 11.0528 69.1263 7.13285 67.1463C5.32285 66.2363 3.56285 64.7063 2.04285 62.1863C2.30285 61.6363 2.59285 61.1063 2.90285 60.5963C7.51285 52.9463 15.1928 49.7663 17.1128 49.0063C42.1128 39.0563 76.8228 65.6363 94.1528 78.9263C112.973 93.3363 112.113 97.0663 124.823 102.856C128.043 104.326 156.853 116.946 185.413 104.736C190.923 102.376 199.063 98.7763 205.233 90.1463C212.143 80.4863 212.503 69.9563 212.713 64.7263C213.073 55.2663 210.953 47.6863 209.293 43.1263C213.003 44.9863 219.083 48.6663 224.303 55.3763C229.933 62.6063 231.733 69.6463 232.913 74.8263C234.483 81.7663 234.873 88.4263 234.193 96.8763L234.203 96.8463Z" fill="white"/>
<path d="M116.723 46.1563C110.103 45.5863 103.413 44.3963 97.1029 42.4263C91.6529 40.7263 86.3829 38.3463 81.6529 35.1363C77.3029 32.1963 72.6529 28.1963 72.9429 22.4163C73.1329 18.5463 75.7129 15.2063 78.5029 12.5163C82.5829 8.57633 87.4429 5.34633 92.8729 3.72633C98.9429 1.91633 105.513 2.19633 111.643 3.76633C118.873 5.61633 125.983 9.57633 129.553 16.1263C130.703 18.2463 131.473 20.6463 131.253 23.0563C130.983 26.0963 129.183 28.8063 126.973 30.9063C122.613 35.0263 116.463 37.1263 110.483 36.6763C104.503 36.2263 98.7729 33.2663 94.8429 28.7363C92.9429 26.5563 91.3929 23.5963 92.3129 20.8463C93.0529 18.6463 95.3529 17.1563 97.6729 17.1363C99.9929 17.1163 102.213 18.4263 103.543 20.3263C104.233 21.3063 104.713 22.4363 105.383 23.4363C107.033 25.8863 109.883 27.4263 112.823 27.7063C115.763 27.9863 118.753 27.0663 121.173 25.3663C122.443 24.4763 123.643 23.2263 123.753 21.6863C123.883 19.7563 122.303 18.1563 120.713 17.0463C112.733 11.4963 101.493 11.5363 93.1029 16.4463C91.3329 17.4863 89.6429 18.7463 88.4329 20.4063C87.2229 22.0663 86.5229 24.1763 86.8629 26.2063C87.1329 27.7963 87.9929 29.2163 88.9829 30.4763C95.2029 38.4063 106.133 40.9863 115.773 40.2463C124.483 39.5763 141.073 34.5863 141.793 23.7863C142.033 20.2363 140.623 16.9663 140.623 16.9663C139.783 15.0063 138.663 13.6963 136.453 11.1663C135.203 9.72633 133.373 7.76633 130.973 5.59633C131.273 5.68633 131.593 5.77633 131.943 5.87633C136.433 7.11633 140.263 7.60633 142.593 7.88633C144.323 8.10633 145.383 8.11633 146.193 8.11633C148.513 9.90633 158.463 17.9263 157.453 27.3263C156.703 34.2663 150.613 38.9763 144.723 41.7363C137.053 45.3263 128.583 46.8563 120.143 46.3863C119.013 46.3263 117.883 46.2463 116.753 46.1463L116.723 46.1563Z" fill="#7E3F1D"/>
<path d="M185.463 45.5163C179.153 57.2463 165.393 60.9163 153.413 63.3863C147.153 64.7363 140.693 65.4563 134.393 65.5663C124.323 65.9363 111.913 64.3963 103.523 62.5163C88.7029 58.7263 74.6629 52.5163 61.5429 44.6363C56.1529 41.2663 49.8029 36.2663 50.1929 29.0863C50.2429 28.1163 50.4329 27.1863 50.7129 26.3163C53.0029 26.2563 54.9729 26.3863 56.5129 26.5463C57.0329 26.0763 57.5529 25.6463 58.0429 25.2563L57.7629 25.6663C56.0029 28.3463 55.6729 30.3663 57.3029 32.9963C59.7529 36.8363 65.2329 39.7663 69.5629 42.0463C79.3029 47.2063 89.7729 51.0163 100.523 53.3863C101.803 53.6963 103.213 53.9263 104.503 54.1563C105.113 54.2363 105.793 54.3563 106.383 54.5063C117.453 55.7763 135.873 55.8063 149.053 52.3263C156.753 50.2863 165.363 48.5363 171.613 43.5463C176.983 39.3263 178.603 31.2863 174.313 25.6863C172.093 22.6563 168.223 20.2663 164.713 18.7763C173.483 19.2663 180.373 21.3963 185.013 23.2763C188.843 29.5063 189.503 37.5563 185.463 45.5263V45.5163Z" fill="#7E3F1D"/>
<path d="M208.283 69.3963C202.383 87.8863 180.823 93.1263 169.193 96.4763C148.103 102.556 130.053 98.9163 118.283 96.5463C112.933 95.4663 101.143 92.7463 87.2929 86.1863C71.9829 78.9363 62.9929 71.1663 48.4229 58.5863C44.6129 55.2963 40.2129 51.2763 36.4229 44.7763C33.9829 40.5763 32.1829 36.0363 31.0629 31.2663C33.0529 30.2863 35.0829 29.5563 36.9829 28.8563C38.5129 28.3063 40.0229 27.8563 41.4729 27.5063C42.1529 36.8263 46.9929 45.4763 54.6129 51.4463C69.6129 64.4663 88.1129 73.3863 107.463 77.6863C109.553 78.1763 111.783 78.5163 113.893 78.8763C120.973 79.7263 138.353 80.6763 148.893 79.7363C164.463 78.7763 180.583 75.4463 192.203 64.9263C196.023 61.6563 198.853 57.1363 200.053 52.2163C201.663 44.8463 200.403 36.7863 197.183 29.6563C199.163 31.0563 201.173 32.7363 203.143 34.7963C205.763 37.5263 207.753 40.3563 209.303 43.0863C210.743 51.8463 210.993 60.8663 208.283 69.3863V69.3963Z" fill="#7E3F1D"/>
<path d="M110.253 92.4463C110.373 92.4763 110.493 92.5163 110.603 92.5363C110.463 92.5063 110.293 92.4763 110.153 92.4163C110.183 92.4163 110.223 92.4263 110.253 92.4363V92.4463Z" fill="#7E3F1D"/>
</svg>
