<svg width="320" height="185" viewBox="0 0 320 185" fill="none" xmlns="http://www.w3.org/2000/svg">
<g clip-path="url(#clip0_22_18)">
<path d="M264.17 88.41C264.17 99.78 258.91 110.48 249.6 119.84C245.91 88.02 198.48 62.84 140.51 62.84C82.54 62.84 35.1 88.02 31.4 119.84C22.09 110.47 16.83 99.78 16.83 88.41C16.83 51.57 72.21 21.7 140.51 21.7C208.81 21.7 264.18 51.57 264.18 88.41H264.17Z" fill="#211E21"/>
<path d="M15.21 100.43C15.14 100.21 15.1 100.01 15.04 99.8" stroke="#FF00F3" stroke-width="0.5" stroke-miterlimit="10"/>
<path d="M261.86 109.53C258.68 115.49 255.5 121.52 252.32 127.62C250.32 131.46 248.35 135.3 246.39 139.12C246.38 139.15 246.37 139.19 246.34 139.22C234.15 165.48 191.38 184.88 140.49 184.88C102.07 184.88 68.28 173.82 48.77 157.09C44.69 153.59 41.22 149.83 38.49 145.88C41.19 145.89 44.2 145.65 47.42 145C49.01 144.68 50.5 144.29 51.87 143.87C52.72 143.61 52.83 142.44 52.05 142.01C47.07 139.25 41.51 135.72 35.74 131.2C34.21 130 32.74 128.8 31.35 127.6C28.65 125.28 26.2 122.97 24.02 120.76C23.4 120.14 22.69 119.65 21.92 119.3C21.71 118.85 21.51 118.41 21.31 117.95C18.6 111.78 16.67 105.97 15.29 100.77C17.94 109.19 23.31 117.2 31.16 124.45C36.71 129.59 43.48 134.34 51.41 138.62C75.26 151.49 106.9 158.57 140.5 158.57C174.1 158.57 205.73 151.49 229.58 138.62C237.51 134.34 244.29 129.58 249.83 124.45C254.46 120.17 258.24 115.63 261.09 110.88C261.35 110.43 261.62 109.99 261.87 109.54L261.86 109.53Z" fill="#211E21"/>
<path d="M51.89 143.87C50.52 144.29 49.03 144.68 47.44 145C44.21 145.65 41.21 145.89 38.51 145.88C38.3 145.58 38.1 145.3 37.92 145C37.91 144.99 37.9 144.97 37.89 144.95C32.78 138.67 26.9 130.14 21.94 119.28C22.72 119.63 23.43 120.13 24.04 120.74C26.22 122.95 28.67 125.26 31.37 127.57C32.77 128.78 34.23 129.98 35.76 131.18C41.54 135.7 47.1 139.23 52.07 141.99C52.85 142.42 52.73 143.59 51.89 143.85V143.87Z" fill="#211E21"/>
<path d="M13.67 83.97C13.1 85.99 12.48 88.85 12.39 92.3C12.24 97.65 13.52 99.3 12.7 103.68C11.91 107.86 9.96999 110.96 9.65999 111.52C6.87999 116.57 2.34999 120.79 0.37999 126.28C-0.54001 128.83 0.42999 131.52 1.20999 133.99C1.99999 136.47 3.11999 138.83 4.81999 140.82C6.34999 142.62 8.15999 144.17 10.01 145.64C11.79 147.06 13.42 148.72 15.33 149.99C15.33 149.99 21.96 154.97 28.51 158.27C29.32 158.68 30.6 159.3 32.33 159.43C35.61 159.67 39.03 158.3 42.26 157.81C47.64 156.99 52.97 157.03 58.39 157.03C68.48 157.32 77.56 158.01 83.62 158.56L13.67 83.97ZM36.81 145.85C34.14 145.75 31.58 144.85 29.39 143.33C26.47 141.29 23.45 139.03 20.35 136.52C17.31 134.04 14.5 131.58 11.97 129.18C11.13 128.39 10.77 127.21 11.05 126.1C11.37 124.81 12.03 123.14 13.4 121.58C14.15 120.72 14.99 120.06 15.81 119.56C17.71 118.42 20 118.39 21.93 119.29C26.88 130.15 32.76 138.68 37.88 144.96C37.89 144.97 37.9 144.99 37.91 145.01C38.09 145.31 38.3 145.59 38.5 145.89C37.93 145.89 37.36 145.88 36.81 145.86V145.85Z" fill="#211E21"/>
<path d="M319.46 8.85002C318.2 5.89002 315.17 4.75001 313.11 4.02001C310.14 2.97001 305.99 2.35001 299.04 4.02001C295.53 4.87001 291.58 6.24001 284.7 9.96001C275.15 15.11 271.76 18.4 260.28 25.41C259.08 26.14 257.95 26.82 256.88 27.45C253.16 29.65 249.06 31.12 244.79 31.85C244.11 31.96 243.43 32.08 242.75 32.19C242.75 32.19 238.45 32.82 233.35 32.58C229.27 32.39 219.25 31.08 206.07 28.19C214.51 30.98 222.4 34.33 229.59 38.21C247.1 47.66 259 59.46 264.36 72.4C261.41 65.1 259.33 61.7 257.89 59.98C256.56 58.4 255.48 56.65 254.23 55.02C253.38 53.91 252.86 53.25 252.53 52.11C251.96 50.19 252.42 48.5 252.59 47.87C252.84 46.99 253.32 45.86 254.36 44.59C254.92 43.92 256.4 42.2 261.81 39.76C262.28 39.54 262.43 39.49 265.86 38.11C272.51 35.44 273.24 35.12 274.65 34.66C282.73 31.94 284.45 31.45 289.68 29.68C291.86 28.95 289.67 29.67 304.72 24.17C304.72 24.17 309 22.6 315.9 18.27C317.04 17.55 318.63 16.5 319.48 14.52C319.56 14.33 320.66 11.64 319.48 8.86001L319.46 8.85002ZM305.56 14.88C304.05 15.81 302.57 16.49 299.97 17.48C297.69 18.34 295.99 18.88 294.3 19.41C291.18 20.41 289.82 20.73 288.89 20.92C286.74 21.38 284.38 21.88 284.18 21.37C283.95 20.82 286.23 19.38 288.64 17.85C289.73 17.15 291.16 16.29 293.67 14.96C298.18 12.56 299.9 11.94 301.29 11.56C302.05 11.34 303.56 10.97 305.44 11.18C306.17 11.26 308.15 11.49 308.33 12.31C308.5 13.07 307.05 13.98 305.56 14.88Z" fill="#211E21"/>
<path d="M264.72 73.34C264.59 73.02 264.47 72.71 264.35 72.41C258.99 59.47 247.09 47.67 229.58 38.22C222.4 34.34 214.5 30.99 206.06 28.2C186.49 21.73 163.98 18.27 140.5 18.27C106.9 18.27 75.26 25.35 51.41 38.22C26.9 51.46 13.39 69.28 13.39 88.41C13.39 92.28 13.94 96.09 15.04 99.8C15.1 100.01 15.14 100.21 15.21 100.43C15.23 100.53 15.26 100.64 15.3 100.75C17.95 109.17 23.32 117.18 31.17 124.43C36.72 129.57 43.49 134.32 51.42 138.6C75.27 151.47 106.91 158.55 140.51 158.55C174.11 158.55 205.74 151.47 229.59 138.6C237.52 134.32 244.3 129.56 249.84 124.43C254.47 120.15 258.25 115.61 261.1 110.86C261.36 110.41 261.63 109.97 261.88 109.52C261.94 109.43 261.99 109.33 262.04 109.23C265.71 102.6 267.62 95.58 267.62 88.4C267.62 83.25 266.65 78.21 264.74 73.32L264.72 73.34ZM249.6 119.85C228.79 140.84 187.74 155.13 140.51 155.13C93.28 155.13 52.22 140.84 31.4 119.85C22.09 110.48 16.83 99.79 16.83 88.42C16.83 51.58 72.21 21.71 140.51 21.71C208.81 21.71 264.18 51.58 264.18 88.42C264.18 99.79 258.92 110.49 249.61 119.85H249.6Z" fill="#211E21"/>
<path d="M266.32 65.88C264.4 62.8 258.84 53.92 249.88 52.44C245.05 51.64 242.24 53.49 236.6 51.46C235.29 50.99 232.71 48.54 226.82 44.81C221.62 41.52 217.77 38.26 214.71 35.05C212.95 33.22 211.45 31.4 210.11 29.62C209.94 29.4 209.78 29.19 209.62 28.97C203.59 20.77 200.58 13.21 190.19 6.97C173.42 -3.08 153.23 -0.190003 130.86 3C114.47 5.34 114.88 8.12 98.17 9.69C83.08 11.12 73.42 9.74 63.66 16.36C59.63 19.08 56.74 22.4 54.68 25.41C53.23 27.55 51.07 29.09 48.57 29.81C41.97 31.74 33.12 35.46 24.75 42.8C20.76 46.31 7.05001 58.36 5.30001 77.49C4.96001 81.23 4.36001 88.86 8.15001 97.41C9.37001 100.17 10.86 102.58 12.5 104.7C14.39 107.19 16.48 109.25 18.53 110.95C19.48 111.75 20.43 112.46 21.34 113.1C23.23 114.41 24.98 115.4 26.41 116.13C28.27 117.08 29.92 118.36 31.4 119.83C31.42 119.85 31.42 119.85 31.42 119.85C52.45 140.98 65.19 148.75 65.19 148.75C81.02 158.41 97.1 159.73 103.41 160.18C124.03 161.65 125.15 154.37 150.93 155.14C163.49 155.52 168.85 157.41 182.13 156.01C184.72 155.74 194.44 154.61 206.09 150.73C220.28 146 256.59 133.91 267.63 103.05C268.95 99.36 275.62 80.71 266.35 65.89L266.32 65.88Z" fill="#EAA149"/>
<path d="M114.32 148.07C113.24 148.07 112.05 148.02 110.81 147.93C87.69 146.24 74.22 130.39 58.57 117.2C50.89 110.73 40.15 106.55 38.81 96.2C37.56 86.6 43.4 76.39 50.8 69.74C55.11 65.87 60.21 63.03 65.95 61.31C74.38 58.79 76.33 52.91 82.46 48.12C88.5 43.4 99.38 44.13 106.95 43.4C118.29 42.31 129.57 40.06 139.95 35.84C144.8 33.87 149.45 31.46 154.51 29.97C167.45 26.14 179.99 31.7 186.05 42.35C188.84 47.25 190.19 52.64 191.07 58.05C191.83 62.74 191.07 68.63 193.65 72.86C198.21 80.3 211.42 86.57 220.62 83.81C224.33 82.69 228.09 81.07 231.97 81.53C243.57 82.93 244.53 100.14 239.35 106.93C236.39 110.81 233.09 111.01 226.9 114.06C216.05 119.41 212.2 128.85 203.27 135.54C188.17 146.85 169.74 143.91 151.79 143.36C150.49 143.32 149.26 143.3 148.09 143.3C136.78 143.3 130.14 145.02 124.81 146.4C121.01 147.38 118.5 148.04 114.33 148.04L114.32 148.07Z" fill="#FFD561"/>
<path d="M166.65 144.04C155.19 145.05 143.43 144.62 132.3 147.49C128.06 148.46 123.9 150.09 119.48 150.91C108.65 152.51 97.4 149.88 87.87 144.65C77.31 138.86 68.9 130.18 60.48 121.88L57.38 118.84C52.25 113.8 45.49 109.94 41.81 103.52C47 108.76 54.08 111.3 60 115.74L63.52 118.41C70.32 123.69 76.97 129.55 84 134.28C95.27 141.86 108.95 146.82 122.53 143.83C131.09 141.67 140.43 140.74 149.2 141.62C155.09 142.16 160.83 143.05 166.66 144.02L166.65 144.04Z" fill="#AA6B37"/>
<path d="M231.97 81.54C244.71 80.16 249.22 97.93 244.95 107.54C242.21 114.4 235.69 116.49 229.85 119.58C220.13 124.9 215.01 135.93 204.73 141.53C197.76 145.66 189.48 147.31 181.48 146.87C176.35 146.56 171.43 145.61 166.65 144.03C169.09 143.38 171.5 142.85 173.87 142.3C184.62 139.9 195.42 136.18 202.88 127.76C205.78 124.68 208.57 120.83 212.33 116.96C216.11 113.02 221.03 109.56 226.23 107.59C229.94 105.93 232.71 105.91 235.23 103.66C237.98 100.59 238.75 95.94 238.61 91.85C238.41 87.41 236.44 83.42 231.97 81.54Z" fill="#AA6B37"/>
<path d="M97.67 43.97C111.27 41.39 125.23 38.35 137.75 32.51C144.26 29.51 151.09 25.38 158.5 24.32C176.32 21.67 191 33.83 194.46 50.99C195.08 53.86 195.6 56.69 195.79 59.58C195.97 63.25 195.7 68.5 197.01 70.84C201.45 78.29 212.5 84.01 221.21 82.2C224.64 81.53 228.49 80.57 231.97 81.56C228.34 81.72 225.31 83.39 222.05 84.84C211.83 89.58 196.76 84.1 190.31 74.96C186.85 69.7 187.57 63.79 186.42 58.12C185.18 52.01 183.25 45.91 179.19 41.23C174.38 35.75 167.09 32.92 159.72 33.7C152.97 34.46 147.23 37.64 140.64 39.8C126.73 44.48 112.13 45.51 97.67 43.98V43.97Z" fill="#AA6B37"/>
<path d="M41.8 103.53C35.33 100.31 33.3 91.98 33.97 85.24C35.23 73.4 42.91 62.88 53.16 57.04C56.26 55.29 59.57 53.96 63 53.08C64.8 52.66 66.29 52.33 68 51.33C75.71 46.02 80.8 40.04 91.48 42.1C93.62 42.48 95.66 43.09 97.66 43.96C93.72 46.43 89.17 48.2 86.39 51.75C83.65 55.71 82.05 59.51 78.41 63.36C76.6 65.25 74.24 67.03 71.74 68.27C70.71 68.84 69.26 69.36 68.17 69.79C63.19 71.74 58.75 74.35 54.66 77.89C47.48 84.32 39.94 93.07 41.8 103.53Z" fill="#AA6B37"/>
<path d="M61.81 84.21C68.74 86.23 76.46 87.06 83.39 85.21C90.27 83.04 96.47 78.45 102.94 75.07C112.96 69.82 122.69 64.61 132.52 59C142.15 53.4 150.98 52.75 161.46 56.55C164.12 57.66 169.78 59.68 169.32 63.46C169 64.73 168.28 65.24 167.32 65.73C164.93 66.7 162.37 66.85 160.04 67.32C156.42 67.95 152.91 68.89 149.67 70.47C143.01 73.7 138.19 79.89 131.93 83.91C125.63 88.2 118.52 91.17 111.23 93.24C107.59 94.29 103.85 95.06 100.3 95.97C99.2 96.29 97.91 96.57 97.12 97.17C97.07 97.2 97.12 97.19 97.12 97.17C97.11 97.17 97.18 97.11 97.2 97.04C97.26 96.91 97.27 96.73 97.24 96.66C97.21 96.53 97.3 96.73 97.55 96.9C101.59 99.37 106.59 99.86 111.31 100.51C122.15 101.74 133.05 100.41 143.43 97.02C146.89 95.9 150.31 94.59 153.72 93.19C159.18 91.15 164.54 87.83 170.67 87.37C178.58 87.34 178.96 95.37 175.58 100.72C172.25 106.4 165.66 109.17 160.02 111.08C154.54 112.93 149.09 113.98 143.66 115.5C141.42 116.2 138.96 116.83 137.4 118.24C137.14 118.55 137.17 118.48 137.14 118.64C140.02 124.94 153.89 121.9 159.37 120.58C159.64 120.5 159.93 120.43 160.21 120.41L159.69 120.49C166.74 118.52 174.03 118.08 181.26 118.64C183.65 118.81 186.01 119.15 188.36 119.54C188.52 119.57 188.63 119.72 188.61 119.89C188.58 120.04 188.45 120.15 188.3 120.14C185.94 120.03 183.58 120.03 181.23 120.07C176.56 120.17 171.9 120.74 167.36 121.78C164.91 122.26 162.6 123.21 160.22 123.81C160.32 123.83 160.44 123.83 160.54 123.8C158.81 124.4 156.96 124.95 155.19 125.39C147.66 127.24 135.35 129.07 132.09 119.6C130.92 112.06 142.34 110.22 147.49 108.47C155.12 106.04 165.44 104.28 170.04 97.48C170.79 96.25 171.36 94.49 171.22 93.6C171.2 93.65 171.31 93.72 171.34 93.78C171.46 93.86 171.33 93.73 170.78 93.74C165.69 94.42 161 97.06 155.99 98.82C152.45 100.2 148.83 101.48 145.14 102.55C134.08 105.84 122.14 107.01 110.7 105.01C106.33 104.16 95.52 102.23 93.92 97.55C93.39 95.57 95.07 94.13 96.69 93.67C101.33 92.32 106.01 92.04 110.64 90.86C121.55 88.51 131.57 83.23 139.5 75.34C142.24 72.81 145.14 70.17 148.59 68.34C151.98 66.41 155.71 65.17 159.4 64.24C161.63 63.57 164.01 63.34 165.87 62.29C165.86 62.29 165.68 62.44 165.62 62.75C165.51 63.13 165.78 63.45 165.52 63.17C162.62 61.04 158.51 60.2 154.92 59.59C151.42 59.1 147.92 58.98 144.71 59.72C141.34 60.49 138.18 62.05 135.08 63.73C129.25 66.94 121.08 71.38 115.15 74.21C109.14 76.94 100.96 81.1 95 84.04C90.01 86.58 84.08 88.94 78.24 88.64C72.49 88.55 66.81 87.15 61.61 84.74C61.46 84.67 61.39 84.49 61.46 84.34C61.52 84.2 61.68 84.13 61.82 84.18L61.81 84.21Z" fill="#EAA149"/>
</g>
<defs>
<clipPath id="clip0_22_18">
<rect width="320" height="184.88" fill="white"/>
</clipPath>
</defs>
</svg>
