<?xml version="1.0" encoding="UTF-8"?>
<svg id="Layer_1" xmlns="http://www.w3.org/2000/svg" version="1.1" viewBox="0 0 200 150">
  <!-- Generator: Adobe Illustrator 29.5.1, SVG Export Plug-In . SVG Version: 2.1.0 Build 141)  -->
  <defs>
    <style>
      .st0 {
        fill: #ff2056;
      }
    </style>
  </defs>
  <path class="st0" d="M77.93,39.31c-.41-2.3-4.9-25.56-24.5-33.49-2.94-1.19-13.37-5.41-23.88-.56-12.66,5.83-15.66,20.27-15.98,22.03-2.79,15.48,7.12,28.65,19.84,45.07,8.45,10.9,21.92,25.85,42.11,40.06,13.47-8.74,24.24-16.64,31.94-22.53,19.05-14.59,24.85-21.21,29.04-27.04,2.18-3.04,11.85-16.74,10.65-30.54-.21-2.4-1.36-15.65-11.62-23.03-13.3-9.58-30.58-1.11-33.88.5-17.04,8.34-22.64,25.88-23.72,29.54Z"/>
  <path class="st0" d="M156.73,113.51c.21-1.42,1.21-8.92-3.89-15.25-.78-.97-6.37-7.89-13.69-6.68-6.61,1.1-9.77,8.02-10.69,10.02-3.38,7.39-1.49,14.65,0,20.04,3.41,12.36,10.95,20.75,16.03,25.38,4.57-.07,11.88-.72,20.04-4.01,6.97-2.81,18.16-7.32,21.37-17.7,1.65-5.32,1.78-14.03-3.67-18.22-6.16-4.73-15.51-.66-17.03,0-4.27,1.86-7.01,4.67-8.47,6.42Z"/>
</svg>