<?xml version="1.0" encoding="UTF-8"?>
<svg id="Layer_1" xmlns="http://www.w3.org/2000/svg" version="1.1" viewBox="0 0 310 330">
  <!-- Generator: Adobe Illustrator 29.5.1, SVG Export Plug-In . SVG Version: 2.1.0 Build 141)  -->
  <defs>
    <style>
      .st0 {
        fill: #497d00;
      }

      .st1 {
        fill: #ff8904;
      }

      .st2 {
        fill: #fff085;
      }

      .st3 {
        fill: #fff;
      }

      .st4 {
        fill: #fef3c6;
      }

      .st5 {
        fill: #f54a00;
      }

      .st6 {
        fill: #91520f;
      }

      .st7 {
        fill: #bbf451;
      }

      .st8 {
        fill: #7ccf00;
      }
    </style>
  </defs>
  <g>
    <path class="st8" d="M273.42,49.9c-.67.79-2.14,1.05-3.3,1.13-3.35.18-6.95.18-10.38.09-11.64-.31-24.09-2.1-35.3-5.25-1.99-.54-3.69-1.39-4.78-3.01-5.29-7.28-14.46-13.69-23.95-14.91-6.21-.89-12.62.17-18.3,2.66-3.24,1.41-4.76,2.69-8.1,4.27-4.59,2.17-9.81,3.2-14.92,2.97-3.15-.18-6.04-.57-7.33-1.92-5.44-6.67,12.64-19.81,17.75-22.89,25.32-15.31,59.11-5.91,83.31,7.01,9.51,5.08,20.89,11.31,24.45,22.46.71,2.18,2.23,5.37.9,7.33l-.06.07Z"/>
    <path class="st7" d="M273.48,49.84l-.05.06c-.67.79-2.14,1.05-3.3,1.13-3.35.18-6.95.18-10.37.09-11.64-.31-24.09-2.11-35.3-5.26-1.98-.54-3.69-1.39-4.78-3.01-5.29-7.28-14.46-13.69-23.95-14.91-6.21-.89-12.62.16-18.3,2.66-3.24,1.4-4.76,2.68-8.1,4.27-4.59,2.17-9.81,3.2-14.92,2.97-3.14-.18-6.04-.57-7.33-1.92-.56-.68-.87-1.43-.97-2.24,4.01-3.64,9.11-7.69,15.35-11.54,6.88-4.23,13.18-8.11,22.28-10.01,10.09-2.11,17.91-.6,30.05,1.75,14.63,2.83,24.65,7.38,26.99,8.47,5.81,2.7,12.63,5.86,19.94,12.13,5.48,4.7,9.72,9.85,13.01,14.92-.06.16-.15.3-.24.44Z"/>
  </g>
  <g>
    <path class="st8" d="M267.15,78.51c-.63.57-2,.57-2.99.47-4.98-.49-10.53-1.33-16.44-2.61-10.22-2.23-20.12-5.51-28.93-9.5-.59-.28-1.1-.54-1.53-.81-1.52-.87-1.86-2.13-2.77-3.68-4.01-7.38-12.02-14.84-20.84-17.28-4.91-1.46-10.22-1.64-15.21-.74-3.08.46-5.9,1.84-8.77,2.02-7.59.15-15.57-1.35-22.77-3.51-2.13-.64-3.82-1.58-2.03-3.31,1.54-1.62,3.61-3.54,6.08-5.51,4.69-3.73,11.01-7.65,18.87-10.08,12.89-4.33,26.32-2.06,38.36,1.66,14.78,3.93,28.2,11.81,37.46,18.86,8.84,6.6,18.22,14.35,20.93,25.65.52,1.82.94,3.86,1.16,5.62.14,1.22.02,2.17-.54,2.68l-.06.05Z"/>
    <path class="st7" d="M258.63,78.32c-3.45-.48-7.11-1.12-10.91-1.95-10.22-2.22-20.13-5.51-28.93-9.49-.59-.28-1.11-.54-1.53-.81-1.52-.87-1.87-2.13-2.77-3.68-4.02-7.38-12.02-14.84-20.84-17.28-4.9-1.46-10.22-1.64-15.21-.74-3.08.46-5.9,1.84-8.77,2.02-6.1.12-12.47-.83-18.47-2.33.71-1.63,1.72-3.49,3.17-5.35,6.23-8.02,15.66-9.84,21.59-11,10.92-2.11,19.54-.3,26.58,1.17,12.16,2.55,20.64,7.02,25.42,9.58,6.74,3.62,14.03,7.61,20.88,15.54,2.63,3.04,5.86,6.86,7.94,12.91,1.47,4.28,1.86,8.24,1.85,11.42Z"/>
  </g>
  <g>
    <path class="st8" d="M265.16,133.05c-.75.1-1.7-.36-2.44-.78-5.79-3.32-11.97-7.28-18.28-11.99-5.7-4.22-11.71-9.32-16.44-13.83-.61-.58-1.35-1.3-1.81-1.85-1.22-1.37-1.08-2.45-1.57-4.05-2.26-8.96-8.46-18.48-16.97-23.54-7.03-4.51-14.9-5.33-21.07-5.72-8.33-1.63-17.09-3.73-23.7-9.49-1.36-1.23-1.84-2-.62-2.79,5.14-2.8,12.76-6.08,23.03-7.31,16.43-1.97,29.62,3.26,42.97,11.77,8.88,5.06,29.47,24.43,38.75,43.33,3.83,6.67,5.27,15.08,1.52,22.22-.89,1.51-1.61,3.59-3.27,4.02h-.09Z"/>
    <path class="st7" d="M262.04,131.87c-5.59-3.23-11.53-7.07-17.6-11.59-5.69-4.23-11.7-9.32-16.44-13.82-.61-.58-1.35-1.31-1.81-1.85-1.23-1.37-1.08-2.45-1.57-4.05-2.26-8.95-8.46-18.48-16.96-23.53-7.03-4.51-14.9-5.32-21.07-5.72-8.32-1.63-17.09-3.73-23.7-9.49-1.24-1.12-1.74-1.86-.91-2.57,5.99-.24,13.25-.39,21.49-.25,10.5.18,15.86.3,21.43,1.67,12.61,3.11,21.01,9.67,27.14,14.46,10.56,8.25,16.41,16.52,21.15,23.24,4.83,6.83,7.46,10.64,8.91,16.62,1.57,6.46,1,12.37-.04,16.88Z"/>
  </g>
  <g>
    <g>
      <ellipse class="st4" cx="155" cy="275.89" rx="146.14" ry="49"/>
      <path class="st1" d="M20.79,265.79c-1.06-.04-6.06-.33-10.35,2.73-.31.22-6.2,4.53-5.4,8.96,1.01,5.58,11.36,4.23,15.74,12.15,2.88,5.19.08,8.76,3.15,11.7,3.64,3.48,9.4.29,17.54,0,12.16-.43,12.41,6.27,31.55,11.49,3.2.87,14.87,3.87,30.08,3.35,6.73-.23,7.39-.91,13.21-1.26,18.48-1.11,21.16,5.26,37.98,5.95,19.31.8,23.48-7.27,40.13-4.69,2.41.37,7.5,1.34,13.95,0,6.45-1.35,8.51-3.81,13.5-5.78,10.19-4.03,13.09,1.73,26.54,0,14.4-1.85,25.48-10.3,27.89-12.21,5.93-4.7,5.92-6.71,11.7-9.9,7.89-4.35,13.57-3.72,16.04-8.55,1.5-2.93,1.12-6.52,0-9-3.34-7.37-15.1-8.8-20.09-9.35-90.11-9.88-248.63,4.92-263.17,4.4Z"/>
      <ellipse class="st4" cx="155" cy="261.39" rx="146.14" ry="49"/>
    </g>
    <path class="st6" d="M248.54,246.88c-9.23-2.62-.64-11.19-20.36-15.08-6.45-1.12-13.76-.68-19.64,1.41-4.13,1.48-7.8,3.48-12.49,4-4.72.58-9.88-.06-15.28.31-15.68,1.5-11.85-2.47-21.21-7.95-8.54-4.51-20.91-5.59-31.5-3.93-4.03.63-8,1.78-11.31,3.36-2.78,1.29-5.47,2.74-8.62,3.36-4.86,1-10.41.09-15.49.36-10.37.36-19.75,4.1-25.48,9.47-5.83,5.65-14.72,5.29-23.84,6.17-6.2.65-11.7,1.78-15.44,3.24-13.72,5.7-1.27,11.42,13.28,13.1,4.8.62,9.94.89,14.78.96,4.35.08,8.64.21,12.55,1.18,3.3.91,10.78,2.86,9.1,5.88-1.72,2.11-6.04,3.53-7.7,5.72-3.16,3.88,3.1,7.13,8.02,8.45,5.95,1.79,14.83,2.75,22.49,2.8,6.27.01,12.48.12,18.3,1.73,15.16,5.02,33.98,5.73,48.91-.17,8.46-3.27,11.11-7.71,21.1-2.92,12.52,5.31,30.62,5.09,42.47-.87,2.92-1.49,5.3-3.41,6.79-5.6,2.29-3.74,4.54-6.13,10.99-6.81,14.01-1.03,31.87-3.39,37.6-10.13,6.31-8.39-8.43-13.94-24.04-16.14-4.37-.66-9.84-.78-13.83-1.85l-.15-.04Z"/>
    <g>
      <path class="st3" d="M64.12,115.09c-8.31,6.18-16.32,2.79-18.31,7.66-1.01,2.47.38,5.02.58,5.37,2.43,4.33,9.42,4.41,13.81,4.41,7.49,0,8.8-1.93,14.49-2.38,12.96-1.03,19.55,8.01,34.07,10.03,10.77,1.5,13.02,1.18,17.75,1.58,4.17.35,5.84-.01,7.88,1.03,1.97,1.01,2.65,2.28,3.71,3.37,5.79,5.92,19.2,2.4,21.6,1.73,6.61-1.87,6.6-3.9,12.94-5.18,4.63-.94,7.64-.46,13.51.08,5.64.52,15.87,1.59,26.61.88,11.46-.77,16.45-3.05,19.66-6.62,2.12-2.36,1.37-2.96,3.54-6.15,2.16-3.16,18.64-8.75,20.63-15.86.92-3.3-1.4-6.56-2.02-7.44-3.67-5.17-10.17-4.32-19.57-6.14-15.83-3.06-15.39-8.93-31.85-11.89-10.56-1.9-16.99-2.28-16.99-2.28-2.91-.17-5.02-.18-8.65-.71-5.91-.86-8.35-2.12-17.14-2.13-11.85,0-12.18,2.28-25.96,2.84-16.37.66-21.78-3.93-30.74-.37-6.48,2.57-4.53,5.38-12.17,8.41-5.89,2.33-11.1,2.26-15.59,7.01-.98,1.04-.59.89-2.58,3.34-1.03,1.27-5.27,6.5-9.19,9.42Z"/>
      <path class="st1" d="M119.58,101.44c-2.35-6.93,7.62-16.4,15-20.55,10.17-5.72,20.61-4.22,24.25-3.7,3.32.48,7.55,1.13,12.12,3.9,5.81,3.53,13.63,11.38,11.76,17.88-1.39,4.86-7.57,6.74-15.87,9.25-12.42,3.76-22.85,2.59-28.15,1.64-9.03-1.62-17.31-3.1-19.11-8.43Z"/>
    </g>
    <g>
      <path class="st0" d="M111.38,149.19l2.13,5.36c3.17,7.97-7.23,19.63-23.18,25.96-15.96,6.34-31.52,5-34.69-2.97l-2.13-5.36c-3.17-7.97,7.23-19.63,23.19-25.97,15.95-6.34,31.51-5,34.68,2.97Z"/>
      <path class="st2" d="M87.08,172.36c-15.41,6.12-28.59,4.23-30.79-1.29s6.1-15.95,21.51-22.07c15.41-6.12,28.59-4.23,30.79,1.29s-6.1,15.95-21.51,22.07Z"/>
    </g>
    <g>
      <path class="st0" d="M182.53,175.59l.31,6.41c.47,9.54-14.68,18.06-33.75,18.99-19.08.93-34.99-6.08-35.45-15.61l-.31-6.41c-.47-9.54,14.68-18.06,33.76-18.99,19.07-.93,34.97,6.08,35.44,15.61Z"/>
      <path class="st2" d="M148.61,191.25c-18.43.9-31.63-5.83-31.95-12.44s12.16-14.59,30.59-15.49c18.43-.9,31.63,5.83,31.95,12.44s-12.16,14.59-30.59,15.49Z"/>
    </g>
    <g>
      <path class="st0" d="M242.97,165.97l-.67,4.35c-1,6.46-15.63,9.59-32.58,6.95-16.97-2.63-29.95-10.04-28.95-16.51l.67-4.35c1-6.46,15.63-9.59,32.59-6.95,16.96,2.63,29.94,10.04,28.94,16.5Z"/>
      <path class="st2" d="M210.74,170.67c-16.38-2.54-27.03-9.31-26.33-13.78.7-4.48,12.89-7.7,29.27-5.15,16.38,2.54,27.03,9.31,26.33,13.78-.7,4.48-12.89,7.7-29.27,5.15Z"/>
    </g>
    <g>
      <path class="st0" d="M257.06,196.12v4.4c0,6.54-13.97,11.87-31.13,11.87-17.17,0-31.14-5.33-31.14-11.87v-4.4c0-6.54,13.97-11.87,31.14-11.87,17.16,0,31.13,5.33,31.13,11.87Z"/>
      <path class="st2" d="M225.93,205.7c-16.58,0-28.14-5.05-28.14-9.58,0-4.53,11.56-9.58,28.14-9.58s28.14,5.05,28.14,9.58c0,4.53-11.56,9.58-28.14,9.58Z"/>
    </g>
    <g>
      <path class="st0" d="M127.09,214.99l-.67,4.35c-1,6.46-15.63,9.59-32.58,6.95-16.97-2.63-29.95-10.04-28.95-16.51l.67-4.35c1-6.46,15.63-9.59,32.59-6.95,16.96,2.63,29.94,10.04,28.94,16.5Z"/>
      <path class="st2" d="M94.85,219.68c-16.38-2.54-27.03-9.31-26.33-13.78s12.89-7.7,29.27-5.15,27.03,9.31,26.33,13.78-12.89,7.7-29.27,5.15Z"/>
    </g>
    <path class="st5" d="M113.24,64.42c-10.77,2.78-21.12,6.74-29.32,13.74-3.16,2.93-6.75,6.86-4.69,11.07,2.34,4.64,8.54,4.58,13.45,5.07,5.76.56,10.52,0,16.49,2.75,5.96,2.89,8.01,9.03,6.48,14.97-2.16,7.76-2.16,11.86,6.14,14.79,8.33,2.78,18.17,2.15,26.96,1,11.59-1.46,23.69-3.23,35.41-.8,12.14,2.87,26.06,12.05,26.51,25.92.23,15.74-15,19.9-26.09,25.1-7.7,3.75-14.87,8.78-20.7,14.95-6.2,7.07-7.37,11.49-.79,18.89,10.89,11.73,27.45,20.47,29.71,38.48,2.45,19.96-16.57,34.95-35.54,32.12-6.85-1-12.9-4.38-18.02-8.33-3.67-2.71-6.62-6.04-9.91-7.67-4.55-1.93-10.39,1.79-14.82,4.88-5.4,3.93-12.97,2.75-16.9-2.65-3.93-5.4-2.75-12.97,2.65-16.9,5.09-3.35,10.51-6.37,17.58-8.08,7.02-1.82,16-1.06,22.41,2.84,5.27,3.04,8.94,7.03,12.77,10.36,2.9,2.39,5.81,4.45,9.34,4.58,5.15.17,11.05-3.41,10.48-9.08-.79-6.72-7.59-12.15-12.72-17.22-5.82-5.69-12.07-11.01-16.47-18.19-6.12-9.6-5.68-21.56,1.24-30.61,6.95-9.14,16.75-14.88,27.06-19.25,6.67-2.85,15.13-4.28,21.31-6.25,8.08-2.21,10.62-8.94,6.46-16.09-3.45-5.65-10.14-10.28-16.81-11.71-21.24-3.92-42.51,8.03-63.73,2.04-10.22-2.7-16.13-10.81-14.15-21.41.26-2.05.91-4.14.68-5.78-.1-.46-.16-.43-.27-.53-1.63-1.16-3.21-1.12-6.05-1.28-2.35-.07-4.55-.04-7.08-.03-9.07.26-19.9-1.58-24.79-10.69-9.93-18.61,11.21-34.42,25.45-42.29,4.58-2.55,9.28-4.8,14.08-6.88,4.87-2.14,10.54.07,12.68,4.94,2.43,5.38-.76,11.84-6.49,13.21h0Z"/>
    <g>
      <path class="st0" d="M236.17,211.15l1.15,5.65c1.71,8.41-10.59,18.04-27.4,21.46-16.83,3.42-31.91-.65-33.62-9.05l-1.15-5.65c-1.71-8.41,10.59-18.04,27.41-21.46,16.82-3.42,31.9.65,33.61,9.06Z"/>
      <path class="st2" d="M208.22,229.67c-16.25,3.3-28.89-.89-30.08-6.71s8.82-14.62,25.07-17.92c16.25-3.3,28.89.89,30.08,6.71s-8.82,14.62-25.07,17.92Z"/>
    </g>
  </g>
</svg>