<?xml version="1.0" encoding="UTF-8"?>
<svg id="Layer_1" xmlns="http://www.w3.org/2000/svg" version="1.1" viewBox="0 0 80 270">
  <!-- Generator: Adobe Illustrator 29.5.1, SVG Export Plug-In . SVG Version: 2.1.0 Build 141)  -->
  <defs>
    <style>
      .st0 {
        fill: #fff;
      }

      .st1 {
        fill: #f54a00;
      }
    </style>
  </defs>
  <rect class="st0" x="19.38" y="7.11" width="41.24" height="21.67" rx="3.89" ry="3.89"/>
  <path class="st1" d="M71.96,111.02c-.03-.13-7.61-9.5-7.61-9.5-2.99-3.67-4.65-8.24-4.72-12.97l-.81-54.04c1.05-.46,1.8-1.51,1.8-2.74,0-1.64-1.34-2.99-2.99-2.99H22.37c-1.64,0-2.99,1.34-2.99,2.99,0,1.22.74,2.27,1.8,2.73l-.8,54.05c-.07,4.73-1.74,9.3-4.72,12.97,0,0-7.59,9.37-7.62,9.5-1.6,2.04-2.56,4.6-2.56,7.38v128.21c0,3.3,1.35,6.3,3.53,8.47,1.19,1.19,2.57,2.16,4.04,2.98,10.37,5.74,26.28,5.14,37.93,4.29,9.63-.7,23.56-3.55,23.56-15.74V118.4c0-2.78-.96-5.34-2.56-7.38Z"/>
  <path class="st0" d="M74.53,134.34v96.65c-7.26,2.08-20.01,3.45-34.53,3.45s-27.25-1.37-34.52-3.44v-96.66c7.27,1.61,20.01,2.68,34.52,2.68s27.27-1.07,34.53-2.68Z"/>
  <path class="st1" d="M39.24,177.23c-.22-.9-2.55-10.02-10.51-12.7-1.19-.4-5.43-1.83-9.49.34-4.88,2.61-5.73,8.41-5.82,9.12-.74,6.21,3.5,11.2,8.94,17.41,3.61,4.12,9.31,9.73,17.66,14.89,5.14-3.79,9.22-7.18,12.14-9.7,7.21-6.24,9.35-9,10.88-11.42.79-1.26,4.3-6.92,3.5-12.37-.14-.95-.91-6.18-5.16-8.86-5.5-3.48-12.16.29-13.43,1-6.56,3.71-8.37,10.8-8.71,12.28h0Z"/>
</svg>