<?xml version="1.0" encoding="UTF-8"?>
<svg id="Layer_1" xmlns="http://www.w3.org/2000/svg" version="1.1" viewBox="0 0 300 500">
  <!-- Generator: Adobe Illustrator 29.5.1, SVG Export Plug-In . SVG Version: 2.1.0 Build 141)  -->
  <defs>
    <style>
      .st0 {
        fill: #497d00;
      }

      .st1 {
        fill: #ff8904;
      }

      .st2 {
        fill: #e2b16a;
      }

      .st3 {
        fill: #fff;
      }

      .st4 {
        fill: #ffdf20;
      }

      .st5 {
        fill: #fef3c6;
      }

      .st6 {
        fill: #5ea500;
      }
    </style>
  </defs>
  <g>
    <path class="st5" d="M75.37,45.04c-3.01,3.48-6.29,3.79-20.36,6.65-9.13,1.86-19.61,2.53-27.48,8.03-6.8,4.75-11.47,12.55-14.23,20.24-1.86,5.17-6.63,18.46.45,29.32,2.84,4.35,6.64,6.86,9.22,8.23.93,2.26,2.82,6,6.47,9.56,3.48,3.39,7.07,5.17,9.29,6.06,1.78,3.82,4.84,8.8,10.05,12.98,16.01,12.8,37.49,6.05,39.79,5.28,1.98,1.04,7.85,3.79,15.42,2.57,5.73-.92,9.66-3.67,11.47-5.12,1.98.09,5.05,0,8.45-1.16,11.73-4.01,19.64-18.08,18.38-30.97-.27-2.78-1.18-7.64-4.72-13.09,1.31-5.23.85-9.14.21-11.73-1.46-5.82-4.88-8.95-19.88-24.21-6.81-6.92-8.23-8.44-9.22-11.53-1.54-4.8-1.08-10.35-.58-16.45.26-3.14.64-5.75.95-7.57-5.3-2.67-10.97-5.88-16.83-9.75-3.02-2-5.85-4.01-8.49-6.01-.57,3.01-1.45,7.38-2.76,12.59-2.28,9.05-3.46,13.62-5.59,16.09Z"/>
    <path class="st2" d="M39.72,126.05c-1.03-12.07,3.3-25.39,11.94-34.51,3.35-3.53,7.07-6.31,10.53-9.45,14.87-13.64,25.38-33.29,27.89-53.55.07-.74.73-1.27,1.47-1.19.8.08,1.35.87,1.16,1.64-4.99,19.92-9.87,43.91-24.48,59.28-4.7,4.9-10.48,8.95-14.3,14.23-2.58,3.38-4.79,7.16-6.68,11.15-1.9,4-3.41,8.25-4.89,12.7-.41,1.37-2.55,1.19-2.65-.3h0Z"/>
    <path class="st2" d="M23.71,111.13c-8.84-15.63.24-33.98,15.18-41.72,6.8-3.78,14.56-4.06,21.61-6.62,15.87-6.35,23.64-24.66,24.99-40.78.06-.76.73-1.32,1.49-1.26.83.06,1.42.88,1.22,1.69-2.22,9.66-5.05,19.28-10.16,27.84-5.05,8.87-12.7,16.44-22.11,20.58-14.47,6.21-27.52,16.08-29.23,32.48-.27,2.26-.33,4.62-.33,7.08.03,1.41-1.96,1.96-2.64.71h0Z"/>
    <path class="st2" d="M89.21,145.89c2.27-10.98,6-22.13,7.03-33.24.76-9.2-1.04-18.46-4.22-27.22-3.49-8.31-3.48-17.78-2.09-26.28.8-5.14,1.65-10.19,2.79-15.24,1.1-5.04,2.32-10,3.2-15.13.13-.79.88-1.32,1.67-1.18.93.14,1.48,1.19,1.07,2.04-2.16,4.61-3.34,9.59-3.97,14.61-.9,9.66-1.46,20.35,1.54,29.52,1.1,3.5,3.08,6.42,4.89,9.51,3.43,6.01,6,12.4,7.26,19.41,1.9,11.08.37,23.18-5.41,32.88-2.88,4.77-6.58,9.05-11.43,11.99-1.12.72-2.66-.38-2.33-1.67h0Z"/>
    <path class="st2" d="M114.06,142.01c2.74-8.94,6.21-17.54,5.87-26.98-.37-11.97-5.19-23.32-9.77-34.23-3.98-9-8.34-18.28-11.13-27.71-2.1-7.42-.93-15.37,2.36-22.31.28-.62,1.02-.9,1.64-.61.68.31.93,1.18.51,1.8-5.82,8.96-4.87,18.19-.29,27.48,8.99,20.46,26.28,39.49,23.57,63.27-.29,2.67-.83,5.33-1.73,7.85-1.81,5.03-4.79,9.65-9.02,12.87-.98.75-2.41-.25-2.01-1.42h0Z"/>
    <path class="st2" d="M134.49,99.95c-3.75-5.15-6.81-10.6-10.69-15.62-1.88-2.52-3.97-4.88-6-7.41-4.01-5.12-7.84-10.26-10.9-16.03-4.3-8.87-4.21-19.39-.34-28.39.24-.55,1.11-.25.88.35-1.49,2.81-2.38,5.92-2.75,9.07-.62,6.2.71,12.75,3.69,18.18,6.54,11.04,16.82,19.31,23.55,30.25,1.68,2.78,3.14,5.71,4.14,8.82.31.92-.99,1.61-1.56.79h0Z"/>
  </g>
  <g>
    <path class="st0" d="M116.2,243.71c-12.15-2.24-19.01,1.9-34.56.69-4.73-.37-9.08-1.14-12.99-2.11-7.67-1.9-12.56-9.63-10.66-17.3.88-3.57,1.15-7.4.33-11.32-1.8-8.59-7.53-11.43-6.4-17.7,1.39-7.72,10.71-6.86,14.95-16.05,4.22-9.15-3.11-14.13.78-24.87,2.77-7.66,7.56-8.07,13.99-16.72,1.98-2.66,4.11-6.1,5.96-10.52,3.07-7.34,11.5-10.79,18.81-7.65,1.74.75,3.59,1.48,5.54,2.18,20.18,7.21,32.42,3.86,57.86,9.19,2.44.51,5.4,1.18,8.78,2.08,7.63,2.02,12.3,9.88,10.13,17.47-.41,1.45-.74,2.98-.94,4.6-.9,7.1,1.55,7.91,1.12,14.6-.81,12.78-10.06,14.74-11.79,28.71-1.03,8.28,2.03,9.18,0,14.69-3.4,9.24-13.05,9.68-20.78,17.25-2.41,2.36-4.91,5.68-6.82,10.53-3.12,7.9-12.51,11.08-19.98,7.04-5.1-2.76-9.64-4.09-13.33-4.78Z"/>
    <path class="st6" d="M188.91,170.26c-.03.55-.08,1.07-.16,1.58-2.48.98-5.02,1.78-7.34,2.49-6.6,1.82-13.49,2.58-20.33,2.22-10.97-.7-21.81-3.48-32.5-.34-3.88,1.01-8.08,2.4-10.51,5.72-2.34,3.08-2.86,7.61-3.77,11.6-.63,3.04-1.21,6.08-1.77,9.14-.53,3.13-1.33,6.83-.9,8.42.65,2.22,3.31.22,4.76-.65,1.85-1.21,3.83-2.46,5.83-3.48,7.61-4.04,16.4-4.85,24.8-4.73h.16c9.92.09,19.86.7,29.76,1.41.11,1.78.43,3.08.65,4.31-2.81-.25-5.64-.57-8.46-.66-6.97-.43-13.96-.79-20.94-.88-8.57-.17-17.47.47-25.04,4.82-4.52,2.68-9.61,5.63-12.27,10.25-2.04,3.55-2.15,8.18-2.61,12.58-.34,2.98-.52,5.98-.68,8.98-2.86.07-5.6.41-8.5.75.11-1.36.21-2.71.25-4.04.25-4.28,1.1-8.78-.24-12.26-1.94-4.96-7.56-7.29-12.11-9.51-13.86-5.35-25.39-10.11-35.23-20.52,0-.48.06-.98.15-1.5.23-1.27.68-2.31,1.28-3.2.51.6,1.02,1.17,1.55,1.68,1.41,1.49,2.91,2.91,4.47,4.26,9.13,8.37,20.91,11.6,32.02,16.64,8.47,4.49,10.06,6.63,11.44-4.94.58-3.88,1.3-7.77,1.95-11.63,1.09-5.45.22-10.75-3.25-15.06-4.07-5.47-9.61-9.21-14.65-13.95-4.41-4.07-8.39-8.73-11.51-13.84-1.39-2.31-2.66-4.69-3.71-7.16.99-1.05,2.09-2,3.3-3.08,2.84,7.29,7.83,14.43,13.87,20.14,4.72,4.56,10.16,8.44,14.52,13.33,4.89,5.67,5.48.52,6.71-4,1.1-5.04,3.31-10.21,3.24-15.32-.03-6.17-5.03-10.43-8.65-14.88-5.85-6.99-8.8-15.47-10.48-24.22,1.27-.69,2.63-1.18,4.05-1.46,1.52,8.23,4.1,16.24,9.45,22.72,2.27,2.43,4.75,6.48,7.69,7.69,2.26.4,3-2.89,3.75-4.61,2.22-6.37,4.6-12.72,7.17-18.96,2.92.52,5.77.88,8.64,1.16-.88,2.09-1.73,4.19-2.54,6.28-.92,2.18-1.72,5.37-.21,6.27,1.39,1.09,4.17.82,6.06.76,8.15-.45,16.9-.15,24.57-2.21,4.35-1.09,8.29-3.17,11.88-5.79,1.28.3,2.65.65,4.09,1.03.36.1.71.2,1.05.33-12.73,11.18-27.43,10.13-43.48,10.93-2.01.14-4.24.47-5.9,1.32-4.21,2.08-5.07,6.87-6.64,11.51-.96,3.07-1.9,6.16-2.78,9.26-2.39,7.69,1.31,6.72,6.7,5.24,7.23-1.95,14.54-1.96,21.87-1.02,14.27,2.33,26.72,1.64,39.48-3.9.07.87.08,1.85,0,3Z"/>
  </g>
  <g>
    <path class="st0" d="M124.05,351.35c-2.25-5.67-5.16-13.01-2.41-20.44,3.13-8.44,10.02-7.4,15.03-16.35,6.19-11.06-1.38-17.95,4.81-26.95,5.65-8.21,12.52-4.4,20.44-13.22,9.12-10.14,3.36-19.28,12.1-26.78,7.49-6.42,13.17-.97,22.77-7.49,8.63-5.87,6-12.01,16.84-23.45,4.11-4.33,15.21-16.05,22.25-13.03,4.06,1.74,5.15,7.69,6.01,12.43,2.12,11.6-3.84,15.03-2.41,27.25.93,7.92,3.46,7.55,3.13,13.56-.51,9.23-6.54,10.84-7.94,20.57-1.21,8.46,3.05,9.23,1.75,17.12-1.7,10.34-9.34,10.84-10.77,20-1.52,9.74,6.62,12.31,5.41,22.36-1.04,8.67-8.31,16.79-16.27,19.42-8.1,2.68-11.06-2.26-17.41.42-10.63,4.49-6.9,20.28-17.32,26.46-8.4,4.98-19.75.03-27.67-3.42-3.39-1.48-20.85-9.49-28.36-28.45Z"/>
    <path class="st6" d="M239.89,233.67c-.29,1.43-.52,2.96-.6,4.68-1.12.38-2.27.74-3.44,1.05-7.08,1.91-15.51,3.32-19.44,10.29-2.05,3.44-3.25,7.35-4.69,11.09-2.41,6.56-4.71,13.7-6.63,20.07-.83,3.07-2.2,6.44-2.53,9.54-.14,3.49,4.1.29,5.63-.38,7.31-4.07,16.18-7.46,24.16-10.37l.16-.06c.67-.21,1.34-.45,2.01-.7-.14,1.73-.02,3.12.21,4.31-11.31,4.18-22.88,8.3-32.25,15.56-2.95,2.44-4.77,5.77-6.17,9.29-3.43,9.07-9,18.96-14.78,27.27-3.6,5.17,4.32,5.09,7.61,5.44,17.73,2.22,23.45-4.33,37.05-13.54.73-.5,1.52-.91,2.28-1.2.56,1.03,1.11,2.07,1.57,3.19-.02.02-.02.02-.04.04-1.66,1.66-4.37,3.36-6.6,4.99-13.01,9.59-19.76,12.45-36.23,10.52-4.03-.3-8.92-1.14-12.51.61-1.89.9-3.33,2.43-4.78,3.93-4.02,4.25-8.44,8.37-13.07,12.22-4.87,3.9-4.35,6.63,1.05,9.45,8.23,4.58,17.57,7.22,27.04,7.53-.96,1.5-2.14,2.85-3.67,3.97-10.48-.98-20.56-4.8-29.64-10.09-4.37-2.13-7.5-.95-10.53.75-2.15-1.62-4.42-3.56-6.62-5.84,2.34-1.49,4.77-3.03,7.02-4.63,5.29-3.5,10.37-7.52,7.29-14.01-1.95-4.26-5.02-7.98-7.45-12-3.45-5.49-6.1-11.51-7.81-17.77,1.11-1.14,2.18-2.54,3.19-4.32.02-.05.05-.09.07-.14,2.07,10.07,7.17,19.19,13.09,27.53,2.8,4.2,4.77,10.7,10.29,5.22,5.81-5.57,10.96-11.75,15.48-18.22,2.62-3.57,4.15-7.94,2.16-12.23-1.82-4.14-4.74-7.99-6.92-11.98-5.33-9.29-7.7-19.78-8.77-30.51,1.76-1.99,2.94-3.94,3.79-5.85.7,11.52,2.51,22.52,7.59,32.28,1.78,3.44,3.97,6.85,6.03,10.11,2.86,4.57,4.89,3.58,6.84-.85,4.64-10.72,8.04-22.18,11.03-33.48,1.42-6.04.04-12.17-.94-18.16-.91-5.58-1.47-11.29-1.48-17,.61-.34,1.23-.72,1.87-1.15.92-.63,1.73-1.26,2.42-1.91-.1,7.18.79,25.04,3.4,21.66,7.56-18.55,15.8-37.5,26.22-55.61,2.51-1.12,4.96-1.52,7.04-.63.9.38,1.65.96,2.28,1.7-5.32,8.97-10.24,18.05-14.55,27.19-.65,1.64-2.68,5.02-.1,5.42,2.01.21,7.11-1.55,10.2-2.26,2.15-.56,4.2-1.21,6.17-2.01Z"/>
  </g>
  <g>
    <path class="st0" d="M50.42,380.87c-1.22,7.09,1.97,15.56,7.83,19.98,6.55,4.94,11.18.87,16.13,5.26,7.64,6.78.2,19.71,7.67,26.13,5.47,4.71,11.56-.42,17.46,4.85,5.75,5.14,2.48,12.25,8.35,16.92,4.47,3.56,8.1.81,14.47,2.55,15.41,4.21,15.45,26.13,25.67,27.04,4.97.45,10.21-6.25,20.71-19.65,8.95-11.42,13.39-17.22,11.54-21.24-3.12-6.8-18.94-.82-26.1-10.35-4.34-5.78-.57-10.7-5.74-15.97-5.17-5.28-10.49-1.92-16.51-7.46-5.33-4.92-2.91-9.18-7.99-13.84-5.83-5.34-10.94-1.48-18.76-5.33-9.01-4.43-6.91-11.87-18.23-25.53-1.14-1.37-15.27-18.21-22.02-15.08-3.42,1.58-1.39,6.63-6.16,16.98-4.09,8.87-7.28,8.85-8.3,14.73Z"/>
    <path class="st6" d="M176.99,452.92c-.8,1.19-1.73,2.48-2.78,3.88-2.17-.21-4.29-.56-5.56-.57-5.29-.51-9.96-1.04-14.83-2.98-3.03-1.19-5.82-2.83-8.57-4.54-6.53-4.11-13.22-8.5-19.11-13.72-4.24-3.22-9.58-11.1-15.5-8.28-1.18.57-2.26,1.54-3.16,2.54-2.54,2.83-4.7,5.96-6.71,9.2-.36-.46-.79-.91-1.27-1.34-2.04-1.82-4.11-2.4-6.17-2.58.21-.35.43-.7.63-1.05,2.31-3.3,3.29-7.2,1.04-10.89-6.57-11.41-11.69-23.7-14.62-36.68-1.42-6.68-.98-13.56-2.32-20.12-.83-4.89-3.09-9.47-4.45-14.22,2.13,1.45,4.28,3.3,6.21,5.13.52,1.46.97,2.87,1.41,4.41,2.34,7.47,1.71,15.42,3.08,23.03,1.58,8.73,5.09,17.09,8.54,25.25,1.64,3.07,5.09,13.28,9.36,11.84,1.9-.55,4-3.15,6.21-5.18,2.26-2.13,4.62-4.14,7.07-6.03,3.88-2.98,8.01-5.68,12.31-8.05.7,2.26,1.43,4.53,4.08,6.98.07.07.15.13.22.19-4.02,2.19-7.92,4.71-11.49,7.51-.83.66-1.72,1.47-2.23,2.3-2.04,3.44,2.56,5.52,4.75,7.7,1.9,1.66,3.72,3.41,5.62,5.08,5.86,5.2,12.56,9.59,19.19,13.75,5.35,3.56,11.78,5.81,18.1,6.31l.15.02c1.8.38,7,.42,10.81,1.13Z"/>
  </g>
  <g>
    <circle class="st5" cx="55.39" cy="223.71" r="4.27"/>
    <circle class="st5" cx="76.94" cy="239.69" r="4.27"/>
    <circle class="st5" cx="106.86" cy="243.96" r="4.27"/>
    <circle class="st5" cx="88.3" cy="274.07" r="4.27"/>
    <circle class="st5" cx="72.85" cy="317.45" r="4.27"/>
    <circle class="st5" cx="51.65" cy="286.26" r="4.27"/>
    <circle class="st5" cx="66.7" cy="291.73" r="4.27"/>
    <circle class="st5" cx="95.63" cy="300.27" r="4.27"/>
    <circle class="st5" cx="103.43" cy="364.43" r="4.27"/>
    <circle class="st5" cx="55.39" cy="420.59" r="4.27"/>
    <circle class="st5" cx="25.05" cy="346.18" r="4.27"/>
    <circle class="st5" cx="25.05" cy="290.53" r="4.27"/>
    <circle class="st5" cx="158.46" cy="206.63" r="4.27"/>
    <circle class="st2" cx="66.7" cy="234.04" r="4.27"/>
    <circle class="st2" cx="81.21" cy="215.17" r="4.27"/>
    <circle class="st2" cx="55.39" cy="255.08" r="4.27"/>
    <circle class="st2" cx="58.03" cy="261.44" r="4.27"/>
    <circle class="st2" cx="97.89" cy="261.44" r="4.27"/>
    <circle class="st2" cx="135.95" cy="186.47" r="4.27"/>
    <circle class="st2" cx="114.89" cy="313.88" r="4.27"/>
    <circle class="st2" cx="53.76" cy="177.23" r="4.27"/>
    <circle class="st2" cx="66.7" cy="296" r="4.27"/>
    <circle class="st2" cx="91.36" cy="308.91" r="4.27"/>
    <circle class="st2" cx="43.11" cy="383.53" r="4.27"/>
    <circle class="st2" cx="46.83" cy="395.03" r="4.27"/>
    <circle class="st2" cx="16.2" cy="390.76" r="4.27"/>
    <circle class="st2" cx="87.09" cy="420.59" r="4.27"/>
    <circle class="st2" cx="46.83" cy="317.45" r="4.27"/>
    <circle class="st2" cx="81.21" cy="335.22" r="4.27"/>
    <circle class="st2" cx="128.76" cy="206.63" r="4.27"/>
  </g>
  <g>
    <circle class="st5" cx="188.26" cy="275.94" r="4.27"/>
    <circle class="st5" cx="166.72" cy="259.96" r="4.27"/>
    <circle class="st5" cx="136.8" cy="255.69" r="4.27"/>
    <circle class="st5" cx="128.76" cy="274.07" r="4.27"/>
    <circle class="st5" cx="128.76" cy="228.14" r="4.27"/>
    <circle class="st5" cx="166.53" cy="118.99" r="4.27"/>
    <circle class="st5" cx="179.34" cy="149.2" r="4.27"/>
    <circle class="st5" cx="196.27" cy="160.16" r="4.27"/>
    <circle class="st5" cx="194.16" cy="111.85" r="4.27"/>
    <circle class="st5" cx="102.58" cy="160.16" r="4.27"/>
    <circle class="st5" cx="170.8" cy="182.2" r="4.27"/>
    <circle class="st5" cx="192" cy="213.39" r="4.27"/>
    <circle class="st5" cx="176.95" cy="207.92" r="4.27"/>
    <circle class="st5" cx="148.02" cy="199.38" r="4.27"/>
    <circle class="st5" cx="140.22" cy="135.22" r="4.27"/>
    <circle class="st5" cx="188.26" cy="79.06" r="4.27"/>
    <circle class="st5" cx="210.06" cy="318.15" r="4.27"/>
    <circle class="st5" cx="214.33" cy="264.24" r="4.27"/>
    <circle class="st5" cx="218.6" cy="209.12" r="4.27"/>
    <circle class="st5" cx="85.19" cy="293.02" r="4.27"/>
    <circle class="st2" cx="176.95" cy="265.62" r="4.27"/>
    <circle class="st2" cx="162.45" cy="284.48" r="4.27"/>
    <circle class="st2" cx="188.26" cy="244.58" r="4.27"/>
    <circle class="st2" cx="185.62" cy="238.22" r="4.27"/>
    <circle class="st2" cx="145.76" cy="238.22" r="4.27"/>
    <circle class="st2" cx="150.03" cy="264.24" r="4.27"/>
    <circle class="st2" cx="159.62" cy="243.8" r="4.27"/>
    <circle class="st2" cx="176.95" cy="203.65" r="4.27"/>
    <circle class="st2" cx="152.29" cy="190.74" r="4.27"/>
    <circle class="st2" cx="200.55" cy="116.12" r="4.27"/>
    <circle class="st2" cx="196.82" cy="104.62" r="4.27"/>
    <circle class="st2" cx="227.45" cy="108.89" r="4.27"/>
    <circle class="st2" cx="156.56" cy="79.06" r="4.27"/>
    <circle class="st2" cx="196.82" cy="182.2" r="4.27"/>
    <circle class="st2" cx="162.45" cy="164.43" r="4.27"/>
    <circle class="st2" cx="114.89" cy="293.02" r="4.27"/>
  </g>
  <g>
    <path class="st3" d="M287.35,361.15c1.34,6.91,1.53,13.78.71,20.4-1.7,13.81-7.8,26.57-17.09,36.54-9.08,9.74-21.22,16.79-35.29,19.51-14.07,2.72-27.96.7-40.02-4.94-12.33-5.78-22.75-15.35-29.48-27.53l57.11-31.59h0s0,0,0,0l57.11-31.59c3.23,5.84,5.61,12.29,6.95,19.2Z"/>
    <path class="st1" d="M255.61,431.92c-6.07,3.36-12.68,5.76-19.66,7.11-13.95,2.7-28.09.95-40.91-5.05-12.69-5.94-23.39-15.94-30.14-28.14l2.54-1.41c6.45,11.67,16.69,21.23,28.83,26.91,12.26,5.74,25.79,7.41,39.13,4.83,13.34-2.58,25.27-9.18,34.51-19.07,9.14-9.81,15.08-22.49,16.71-35.72.82-6.62.59-13.33-.69-19.95-1.28-6.62-3.57-12.94-6.8-18.77l2.54-1.41c3.38,6.1,5.77,12.71,7.11,19.63,1.34,6.92,1.58,13.93.73,20.86-1.71,13.83-7.91,27.1-17.47,37.35-4.83,5.17-10.36,9.48-16.42,12.84Z"/>
    <g>
      <path class="st4" d="M192.11,425.18c-1.06.2-2.14,0-3.06-.57-6.97-4.33-13.17-10.12-17.96-16.76-.71-.99-.97-2.24-.7-3.43.26-1.18,1.02-2.19,2.08-2.78l32.51-17.98c.41-.23.84-.38,1.28-.47,1.55-.3,3.13.31,4.13,1.59.99,1.27,1.17,2.91.48,4.39l-15.72,33.64c-.57,1.22-1.71,2.11-3.03,2.36Z"/>
      <path class="st4" d="M227.21,433.77c-.16.03-.32.05-.48.07-8.33.64-16.57-.37-24.48-3.02-1.14-.38-2.07-1.23-2.54-2.34-.48-1.11-.46-2.38.06-3.48l15.73-33.65c.58-1.25,1.68-2.11,3-2.37,2.06-.4,4.5.75,5,3.36l7.05,36.46c.44,2.3-1.06,4.53-3.34,4.97Z"/>
      <path class="st4" d="M269.9,410.13c-1.33.26-2.71-.14-3.7-1.06l-27.13-25.35c-1.19-1.11-1.63-2.7-1.19-4.25.45-1.56,1.69-2.71,3.24-3.01.44-.09.9-.1,1.36-.04l36.86,4.56c1.2.15,2.28.81,2.97,1.8.69,1,.92,2.26.62,3.44-1.96,7.93-5.56,15.63-10.41,22.24-.64.87-1.57,1.46-2.63,1.67Z"/>
      <path class="st4" d="M281.31,375.86c-.44.08-.88.1-1.33.04l-36.87-4.56c-1.86-.23-3.29-1.57-3.64-3.4-.36-1.84.47-3.61,2.11-4.52l32.51-17.98c.39-.22.81-.37,1.25-.45,1.98-.38,3.97.69,4.73,2.55,1.55,3.8,2.74,7.8,3.53,11.87.79,4.07,1.18,8.22,1.15,12.33-.01,2.01-1.46,3.74-3.43,4.13Z"/>
      <path class="st4" d="M240.54,431.19c-2.29.44-4.51-1.07-4.96-3.36l-7.05-36.47c-.5-2.61,1.33-4.58,3.39-4.98,1.33-.26,2.66.14,3.67,1.08l27.15,25.36c.88.83,1.37,1.99,1.35,3.2-.03,1.2-.57,2.34-1.48,3.12-6.35,5.4-13.61,9.42-21.59,11.93-.15.05-.31.09-.47.12Z"/>
    </g>
  </g>
</svg>