<?xml version="1.0" encoding="UTF-8"?>
<svg id="Layer_1" xmlns="http://www.w3.org/2000/svg" version="1.1" viewBox="0 0 120 300">
  <!-- Generator: Adobe Illustrator 29.5.1, SVG Export Plug-In . SVG Version: 2.1.0 Build 141)  -->
  <defs>
    <style>
      .st0 {
        fill: #e7000b;
      }

      .st1 {
        fill: #fef3c6;
      }
    </style>
  </defs>
  <path class="st1" d="M79.48,46.75c.29,10.3,1.66,20.64,3.96,30.73,1.25,5.12,2.8,10.24,3.85,15.36,5.16,25.71,13.45,51.25,18.48,76.81,3.87,20.35,5.56,40.83,4.99,61.45-.62,15.06-2.17,30.26-6.09,44.9-2.62,9.78-11.54,16.55-21.67,16.55-13.44,0-32.54,0-45.99,0-10.13,0-19.05-6.77-21.67-16.55-3.92-14.63-5.48-29.84-6.09-44.9-.58-20.62,1.11-41.1,4.99-61.45,3.94-20.48,10.28-40.97,15.06-61.45.9-3.8,2.62-11.54,3.42-15.36,1.58-7.66,4.23-15.28,5.41-23.04,1.24-7.62,2.27-15.35,2.39-23.04,0,0,38.96,0,38.96,0h0Z"/>
  <rect class="st0" x="36.44" y="7.44" width="47.12" height="40.65" rx="3.92" ry="3.92"/>
</svg>