<?xml version="1.0" encoding="UTF-8"?>
<svg id="Layer_1" xmlns="http://www.w3.org/2000/svg" version="1.1" viewBox="0 0 300 500">
  <!-- Generator: Adobe Illustrator 29.5.1, SVG Export Plug-In . SVG Version: 2.1.0 Build 141)  -->
  <defs>
    <style>
      .st0 {
        fill: #5aa82c;
      }

      .st1 {
        fill: #a7cfd8;
      }

      .st2 {
        fill: #2d4200;
      }

      .st3 {
        fill: #dcfce7;
      }

      .st4 {
        fill: none;
        stroke: #2d4200;
        stroke-miterlimit: 10;
        stroke-width: 3px;
      }
    </style>
  </defs>
  <path class="st3" d="M158.2,300.81c-.76,26.03.14,52.03,5.93,77.51,38.95,3.7,68.59,22.43,68.59,44.98,0,25.21-37.04,45.65-82.72,45.65s-82.72-20.44-82.72-45.65c0-22.54,29.63-41.28,68.57-44.97,3.71-16.46,5.51-33.02,6.02-49.85.54-27.75-.66-55.36-4.06-83-1.89-14.7-4.19-29.26-7.81-43.66-1.86-7.39-5.42-14.26-10.31-20.11L6.44,46.43h0c-1.26-1.5-.77-3.8,1.01-4.63,13.11-6.12,71.95-10.74,142.56-10.74s129.45,4.62,142.55,10.74c1.78.83,2.26,3.13,1.01,4.63h0s-113.14,135.15-113.14,135.15c-4.95,5.92-8.51,12.89-10.38,20.38-8.09,32.32-10.79,65.71-11.84,98.85Z"/>
  <path class="st1" d="M271.82,72.4l-72,86c-10.73,12.82-33.19,23.31-49.91,23.31h0c-19.16,0-37.33-8.49-49.63-23.18L28.18,72.4c1.06.08,2.18.12,3.38.12,19.74,0,19.74-12,39.48-12s19.73,12,39.47,12,19.74-12,39.48-12,19.74,12,39.48,12,19.74-12,39.48-12,19.74,12,39.48,12c1.2,0,2.33-.04,3.39-.12Z"/>
  <g>
    <ellipse class="st0" cx="153.13" cy="155.14" rx="28.73" ry="20.21" transform="translate(-46.42 67.42) rotate(-21.64)"/>
    <ellipse class="st0" cx="109.59" cy="126.97" rx="20.21" ry="24.79" transform="translate(-42.66 197.34) rotate(-74.01)"/>
    <path class="st4" d="M171.92,140.2c.45,5.32-.05,10.72-1.46,15.87"/>
    <path class="st4" d="M177.1,151.86c-1.25-.98-2.82-2.04-4.7-3.02-2.59-1.35-5-2.13-6.92-2.6"/>
    <path class="st2" d="M121.16,141.26c-1.9-1.19-.88-6.43.78-9.79,1.65-3.35,5.18-7.36,7.29-6.58,2.12.78,2.67,6.3.78,10.31-1.99,4.21-6.92,7.27-8.85,6.06Z"/>
  </g>
</svg>