<?xml version="1.0" encoding="UTF-8"?>
<svg id="Layer_1" xmlns="http://www.w3.org/2000/svg" version="1.1" viewBox="0 0 300 500">
  <!-- Generator: Adobe Illustrator 29.5.1, SVG Export Plug-In . SVG Version: 2.1.0 Build 141)  -->
  <defs>
    <style>
      .st0 {
        fill: #c6ff57;
      }

      .st1 {
        fill: #ff2056;
      }

      .st2 {
        fill: #5ea500;
      }
    </style>
  </defs>
  <path class="st1" d="M26.96,487.69l-17.75-21.87c30.73-24.95,57.44-53.67,79.38-85.35,21.22-30.64,37.96-64.02,49.77-99.24l26.71,8.96c-12.65,37.73-30.59,73.5-53.32,106.32-23.46,33.87-51.98,64.55-84.78,91.18Z"/>
  <path class="st2" d="M74.69,290.1c-3.06-3.11-15.94-16.19-11.31-28.4,5.03-13.26,25.94-13,30.16-26.25,3.73-11.72-10.88-17.37-6.6-29.2,3.95-10.91,17.53-9.34,25.45-20.96,10.07-14.79-7.29-24.11,0-41.93,7.3-17.84,28.13-16.88,33.93-35.94,3.48-11.44-3.61-13.13,0-24.71,4.65-14.91,18.52-24.99,32.36-30.76,14.54-6.06,31.03-3.27,44.92-9.67,22.23-10.24,24.02-30.61,35.81-29.95,7.74.44,12.68,9.54,13.19,10.48,5.79,10.67-4.1,16.98,0,28.45,3.66,10.23,12.73,8.58,16.02,17.74,4.83,13.45-13.5,20.27-11.31,36.91,1.65,12.53,12.55,12.51,13.42,23.96,1.21,15.86-19.36,20.11-20.96,37.44-1.32,14.26,12.28,14.98,14.14,31.44,1.38,12.23-6.81,19.9-12.72,29.49-3.71,6.02-6.09,12.38-6.9,19.43-.99,8.6,2.68,16.56,2.03,25.04-1.1,14.32-16.83,23.29-24.82,33.86-11.3,14.94-12.28,33.58-32.76,39.26-10.81,3-23.43,3.17-34.15-.33-14.58-4.75-13.03-12.37-28.27-23.96-27.22-20.69-51.77-11.28-71.63-31.45Z"/>
  <path class="st0" d="M283.37,207.06c-.38,1.45-.86,2.84-1.46,4.19-.83.51-1.6.9-2.07,1.07-29.58,14.25-61.01,24.47-93.42,30.34-3.25.62-6.8,1.45-9.45,3.23-3.44,2.18-5.39,5.93-6.76,9.71-3.14,8.81-6.72,17.65-10.85,26.35-1.16,2.7-3.08,6.29-1.82,8.99l.11.17c1.35,2.18,5.41,2.54,8.22,2.55,32.15.58,64.24-5.33,94.04-17.35,2.29-1.03,4.49-1.73,6.22-2.05-.19,1.33-.53,2.61-.96,3.85-.64.36-1.37.71-2.18,1.11-28.17,11.64-58.53,17.84-88.99,18.33-6.48.43-13.61-1.09-19.72,1.31-7.19,2.44-9.43,13.33-15.7,17.54-.38-.23-.75-.45-1.13-.64-.06-2.16,3.36-7.51,3.74-9.93,1.16-4.24-1.78-7.83-5.01-10.42-3.81-3.04-7.64-6.33-11.12-9.84-12.88-13.16-25.33-27.68-35.4-43.3-.08-.13-.15-.28-.24-.43.83-.77,1.56-1.61,2.2-2.53,1.01,1.07,2.01,2.35,2.82,3.38,10.61,15.08,22.53,29.65,35.68,42.38,3.74,3.32,7.72,7.57,12.49,9.05,6.57,1.6,9.39-6.22,11.83-10.93,2.69-5.73,6.07-11.6,5.24-16.96-.43-3.57-2.67-6.97-4.98-9.88-17.24-21.69-31.96-46.06-41.71-72.01,1.09-1.75,1.77-3.42,2.16-5.03,9.84,26.27,23.98,51.26,41.5,73.2,5.39,6.97,8.94,5.24,11.4-2.72,2.7-8.36,5.2-16.79,6.78-25.33,1.22-6.59-.64-13.09-3.91-18.87-14.29-26.44-27.21-53.46-38.74-81.2,1.11-.75,2.22-1.5,3.27-2.29,11.49,27.4,23.92,54.57,38.53,80.5,4.11,6.4,5.3-1.95,5.88-5.45,2.01-11.94,4.15-23.19,8.41-35.15.83-2.44,1.61-4.98,2.01-7.47,1.01-5.52-.53-10.85-2.87-15.83-11.62-25.5-18.38-53.12-19.79-81.06,1.24-.79,2.5-1.52,3.77-2.22,1.35,28.41,7.81,56.95,20.22,82.6,4.62,8.39,9.58-3.62,12.49-7.32,5.8-8.84,11.77-14.12,17.41-22.46,3.42-5.26,4.66-11.62,3.96-17.82-1.48-15.49-5.73-30.59-6.65-46.31,1.26-.39,2.5-.85,3.72-1.37,1.05,11.81,3.06,23.58,5.2,35.25,1,5.6,1.41,12.69,3.02,14.01,2.14,1.35,4.24-3.29,5.46-4.98,12.68-20.64,21.13-45.12,28.02-70.17.45-1.03.85-1.78,1.2-2.33.66.47,1.3.98,1.88,1.5.02,1.88-.28,4.28-.66,5.56-3.87,16.82-9.97,32.15-16.19,47.38-3.21,11.6,19.32-3.57,22.12-6.12,2.07-1.88,3.87-3.27,5.33-4.23.83.64,1.67,1.2,2.52,1.77-.77,1-1.84,2.22-3.29,3.66-6.38,5.71-14.05,10.1-22.1,13.07-5.39,1.97-10.46,4.86-13.82,9.63-6.16,9.45-13.14,20.51-20.26,28.82-9.09,10.52-11.75,14.44,6.5,12.34,8.68-.81,17.33-2.2,25.93-4.64,9.86-2.35,17.59-7.19,25.89-11.04.53.98,1.13,1.84,1.78,2.65-.64.54-1.26,1.01-1.71,1.3-16.36,10.52-37.8,14.82-56.84,16-5.2.41-10.83.08-15.19,3.19-7.21,5.78-12,19.36-15.62,28.49-4.23,11.49-5.07,17.5,8.32,15.79,24.28-2.4,47.96-8.49,70.72-17.07-.47,1.37-.79,2.84-.96,4.41-23.02,8.79-47.26,14.38-71.81,16.75-3.14.34-6.65.98-9.07,2.74-2.87,2.03-4.11,5.58-4.79,8.98-1.46,8.13-2.61,16.09-4.3,24.51-1.63,9.9-7.49,21.73,6.65,18.76,33.71-5.52,65.68-18.16,96.87-31.64Z"/>
</svg>