<?xml version="1.0" encoding="UTF-8"?>
<svg id="Layer_1" xmlns="http://www.w3.org/2000/svg" version="1.1" viewBox="0 0 350 250">
  <!-- Generator: Adobe Illustrator 29.5.1, SVG Export Plug-In . SVG Version: 2.1.0 Build 141)  -->
  <defs>
    <style>
      .st0 {
        fill: #ffcf00;
      }

      .st1 {
        fill: #f9ad00;
      }

      .st2 {
        fill: #68270a;
      }
    </style>
  </defs>
  <path class="st0" d="M313.61,80.47c-1.17,9.73-6.35,19.36-9.59,28.58-8.81,25.12-20.4,40.83-20.4,40.83-16.05,21.76-37.31,31.47-44.98,34.85-18.74,8.25-35.61,9.72-46.42,10.67-5.26.46-17.88.89-43.12,1.74-5.34.18-9.91.33-13.36.44-1.26.04-2.44.6-3.27,1.55-1.65,1.89-3.31,3.79-4.96,5.68-1.07,1.23-1.4,2.95-.86,4.49l1.22,3.43c.44,1.25,1.42,2.25,2.66,2.72s2.69,1.12,4.24,2.02c6.1,3.57,8.88,8.72,12.62,14.32,9.37,14.02,30.26,14.23,45.35,14.99,29.5,1.5,52.13-8.61,67.34-15.62,14.5-6.68,43.15-20.29,65.37-50.63,0,0,15.29-20.88,20.86-50.35,1.89-9.97,1.79-17.42-2.23-23.09-5.1-7.21-11.68-10.29-11.68-10.29-3.37-1.58-6.04-1.92-7.79-4.52-1.84-2.73-1.48-6.18-.83-9.11,2.94-13.25,19.3-48.99,20.31-51.18-4.64-1.58-9.27-3.15-13.91-4.73-12.14,32.04-15.73,46.26-16.56,53.21Z"/>
  <path class="st1" d="M346.31,130.19c-5.58,29.47-20.87,50.35-20.87,50.35-22.21,30.34-50.87,43.95-65.37,50.62-15.21,7.01-37.84,17.12-67.34,15.62-15.09-.77-35.98-.98-45.35-14.99-3.74-5.6-6.52-10.76-12.62-14.32-1.55-.9-3-1.55-4.24-2.02-1.25-.47-2.22-1.46-2.66-2.72l-1.21-3.43c-.39-1.09-.34-2.26.11-3.29,9.03,2.6,21.3,5.54,36.01,7.36,20.23,2.5,45.27,5.71,73.86-4.03,3.72-1.27,20.78-7.27,39.69-21.77,27.59-21.17,58.62-60.08,48.71-83.54-1.67-3.95-3.6-5.34-4.99-8.29,0,0-.67-1.68-1.14-3.43-.88-3.31,2.59-12.22,9.71-23.87-2.22,5.83-4.02,11.13-4.82,14.75-.65,2.93-1,6.38.84,9.11,1.75,2.6,4.42,2.94,7.78,4.52,0,0,6.58,3.09,11.69,10.29,4.01,5.67,4.11,13.12,2.23,23.09Z"/>
  <path class="st1" d="M322.12,23.89c-2.32,2.08-7.47,6.69-14.08,12.62-15.96,14.31-19.4,17.47-25.06,20.42-2.22,1.16-4.13,1.94-5.93,2.52-8.53,2.71-17.43,2.66-25.67,6.24-10.2,4.43-19.83,10.02-29.58,15.35s-19.29,9.28-29.92,12.54c-14.18,4.35-28.66,7.62-43.19,10.51-18.08,3.6-36.06,5.36-54.64,4.76-13.43-.43-28.69-1.23-41.76,2.44-7.1,1.99-8.62,2.55-8.62,2.55-5.75,2.11-8.46,4.06-13.5,4.51-.5.04-.98.07-1.44.09-2.01.08-3.52,1.85-3.27,3.85l1.41,11.07c.22,1.7,1.64,2.98,3.36,3,.77,0,1.63.07,2.55.21,4.06.63,7.74,2.7,10.79,5.4,3.03,2.68,5.22,6.29,8.75,8.39,10.59,6.28,24.43,8.19,36.51,9.41,14.43,1.45,29.03,1.19,43.43-.47,11.33-1.3,22.55-3.49,33.53-6.54,51.89-14.44,85.06-44.65,118.26-74.89,22.37-20.37,38.92-39.52,50.02-53.49-3.98-.16-7.96-.32-11.94-.47Z"/>
  <path class="st2" d="M64.73,155.59c-4.4-1.3-8.62-2.99-12.42-5.24-3.53-2.1-5.72-5.71-8.75-8.39-3.05-2.7-6.72-4.78-10.78-5.4-.92-.14-1.77-.2-2.54-.21-1.71-.01-3.14-1.3-3.36-3l-1.41-11.07c-.26-1.99,1.26-3.76,3.26-3.84.46-.02.94-.05,1.44-.09,5.04-.45,7.75-2.4,13.5-4.51,0,0,.93-.34,4.72-1.44-2.89,2.37-5.16,5.25-6.08,8.72-2.55,9.63,5.5,23.07,22.42,34.48Z"/>
  <path class="st2" d="M261.95,62.63c-4.71,3.67-9.64,8.29-14.23,14.09-7.86,9.94-6.23,12.63-13.03,20.68-14.84,17.58-36.41,21.07-48.6,20.47-4.06-.2-13.26-.66-15.72-6-.77-1.69-1.16-4.48.21-6.08,2.68-3.15,10.19.54,12.08-2.49.45-.72.54-1.75.12-2.38-1.02-1.55-4.95-.62-7.45,0-15.85,3.9-18.17,5.14-21.92,4.87-1.55-.11-3.48-.49-5.67-1.52.31-.06.63-.13.95-.19,14.54-2.89,29.02-6.16,43.19-10.51,10.63-3.26,20.21-7.22,29.93-12.54,9.74-5.33,19.37-10.91,29.57-15.35,3.43-1.49,6.98-2.36,10.57-3.05Z"/>
  <path class="st2" d="M344.77,29.82c-.14.6-.35,1.34-.68,2.18-1.01,2.19-17.37,37.93-20.31,51.18-.13.57-.25,1.16-.33,1.77-1.37-1.2-2.78-2.54-4.19-4.04-1.83-1.95-3.39-3.89-4.73-5.72,1.21-5.69,3.61-14.23,8.17-27.36.27-.78.55-1.58.83-2.4-1.88,2.07-3.73,4.24-5.54,6.54-1.77,2.25-3.5,4.61-5.16,7.07-.75-1.54-1.96-2.84-3.5-3.7-3.18-1.77-7.21-1.3-9.96,1.17.05-.05.1-.1.15-.15-.06.06-.12.11-.17.17,5.59-7.23,4.77-9.62,4.24-10.42-.77-1.15-2.61-1.43-4.89-1.24,2.55-2.26,5.6-5.01,9.34-8.36,6.61-5.93,11.76-10.54,14.09-12.61-.53-1.32-1.32-3.79-1.03-6.89.29-3.19,1.57-5.38,2.6-7.11,1.75-2.93,4.17-7,6.93-6.81,2.16.14,2.38,2.5,7.29,9.16,3.16,4.3,4.95,5.88,6,8.21.42.93.59,1.72.7,2.13.93,3.67.32,6.58.16,7.25Z"/>
  <path class="st0" d="M312.83,59.04c-4.19,6.25-7.96,13.23-10.97,21.01-7.35,18.96-3.7,26-12.34,42.86-9.89,19.29-24.78,29.78-41.41,41.51-4.49,3.16-25,17.31-55.85,26.75-3.45,1.05-12.37,3.65-24.16,5.84-21.91,4.07-41.52,4.36-65.08,4.71,0,0-45.95,1.37-70.39-12.57-7.49-4.27-11.3-7.55-11.3-7.55-3.91-3.36-5.4-5.61-9.57-8.54-2.41-1.69-4.7-2.91-6.64-3.78-1.48-.67-2.43-2.14-2.46-3.77-.05-2.98-.11-5.97-.16-8.96-.02-1.48.72-2.87,1.98-3.65,5.58-3.49,13.65-7.54,23.88-9.51,11.39-2.19,20.39-.82,24.39-.25,10.57,1.47,21.42,1.23,32.04,1.87,40.65,2.46,81.26,1.98,118.28-17.21,6.53-3.39,25.14-16.59,62.34-42.99,6.83-4.85,10.78-7.7,15.83-11.82,6.79-5.53,12.81-11.1,18.11-16.48,0,0,.01,0,.02-.01,2.76-2.47,6.78-2.94,9.96-1.17,1.54.86,2.74,2.16,3.5,3.7Z"/>
  <path class="st1" d="M312.83,59.04c-4.19,6.25-7.96,13.23-10.97,21.01-7.35,18.96-3.7,26-12.34,42.86-9.89,19.29-24.78,29.78-41.41,41.51-4.49,3.16-25,17.31-55.85,26.74-3.45,1.06-12.37,3.65-24.16,5.85-21.91,4.07-41.52,4.36-65.08,4.71,0,0-45.95,1.37-70.39-12.57-7.49-4.27-11.3-7.55-11.3-7.55-3.91-3.36-5.4-5.61-9.57-8.54-.94-.66-1.86-1.25-2.75-1.77,6.28.52,13.11,1.14,20.4,1.87,34.79,3.53,39.48,5.68,57.34,6.98,9.49.69,45.28,2.77,88.92-8.06,30.39-7.54,50.38-12.6,69-29.83,6.74-6.23,14.33-16.3,29.52-36.46,13.89-18.42,17.92-25.68,28.7-37.58,3.25-3.59,6.46-6.87,9.56-9.86.14.22.26.45.38.68Z"/>
  <path class="st2" d="M57.05,176.49c-.07.66-4.23.42-11.86,1.35-6.65.81-10.01,1.24-11.11,2.7-1.65,2.19-.19,6.31,2.16,10.48-1.25-.59-2.46-1.22-3.62-1.88-7.49-4.28-11.3-7.55-11.3-7.55-3.91-3.36-5.4-5.61-9.57-8.54-.83-.58-1.64-1.1-2.43-1.58h0c-1.51-.91-2.94-1.63-4.21-2.2-1.48-.67-2.43-2.14-2.46-3.77-.05-2.99-.11-5.97-.16-8.96-.02-1.48.72-2.86,1.98-3.65,5.58-3.49,13.65-7.54,23.88-9.5,11.39-2.19,20.39-.82,24.39-.25.61.09,1.22.16,1.83.24-6.4,2.88-11.73,3.7-15.68,3.85-4.64.17-7.71-.57-10.36,1.65-3.75,3.16-4.52,10.52-1.65,15.31,2.12,3.52,6.54,5,15.3,7.8,5.69,1.82,10.23,2.83,12.73,3.53h0c1.39.39,2.14.68,2.12.97Z"/>
  <path class="st2" d="M124.09,195.35c-3.31,3.63-9.71,2.6-13.86.48-4.89-2.29-11.08-9.8-2.64-12.12,5.51-1.83,15.11-2.02,17.9,3.58,1.07,2.55.46,5.85-1.29,7.92l-.12.13Z"/>
  <path class="st2" d="M230.01,155.32c-2.86,1.08-5.72,1.95-8.56,2.65-12.11,2.97-23.84,2.85-33.92,2.75-16.36-.17-20.76-2.82-31.92.45-9.23,2.7-13.9,6.75-20.01,4.27-6.02-2.44-8.41-9.2-14.84-8.99-1.83.06-3.42.67-6.07,0-3.18-.8-5.03-2.73-6.07-3.59-5.52-4.61-14-.74-22.25-1.35-4.2-.31-9.67-1.88-15.96-7.05,4.8.17,9.61.28,14.37.57,38.82,2.35,77.6,2.02,113.26-14.73,1.94.47,3.98.98,6.12,1.54,10.29,2.69,12.56,3.83,15.96,2.59,7.97-2.91,5.52-12.91,15.06-20.01,5.55-4.13,14.3-6.64,21.58-3.37.79.35,5.86,2.71,8.12,7.08.39.73.69,1.52.87,2.36,2.59,11.57-17.14,27.83-35.74,34.84Z"/>
  <path class="st2" d="M346.31,130.19c-5.57,29.47-20.86,50.35-20.86,50.35-22.21,30.34-50.87,43.95-65.37,50.62-5.29,2.44-11.48,5.25-18.55,7.82-10.31-.79-13.31-2.04-13.42-3.25-.13-1.27,2.94-2.14,6.37-6.79.71-.97,4.77-6.48,3.39-8.28-1.57-2.06-8.16,3.53-18.05,4.04-9.38.48-10.02-4.23-21.23-5.52-10.61-1.23-11.49,2.82-26.11,2.97-11.76.12-18.92-2.41-19.96,0-.87,2.01,3.73,4.54,7.64,11.25,2,3.43,3.17,6.82,3.86,9.81-6.72-2.08-12.7-5.53-16.63-11.42-3.74-5.6-6.52-10.75-12.62-14.32-1.54-.9-2.99-1.55-4.24-2.01-1.25-.47-2.22-1.47-2.66-2.72l-1.22-3.43c-.55-1.54-.22-3.25.86-4.49,1.65-1.9,3.3-3.79,4.96-5.68.83-.95,2.01-1.51,3.26-1.55,3.45-.11,8.02-.26,13.36-.43,15.31-.52,25.99-.88,33.18-1.18-11.48,2.43-19.09,3.79-23.31,4.18-1.52.14-7.45.61-7.94,2.85-.13.59.16,1.14.23,1.27,1.06,1.98,5,1.81,7.43,1.68,7.19-.39,12.08-1.05,14-1.22,4.74-.42,4.92.96,20.39,5.48,13.95,4.07,16.99,3.89,19.48,3.35,3.26-.71,6.03-2.4,11.57-5.79,2.82-1.72,13.34-8.16,12.5-10.04-.96-2.16-15.79,3.95-17.07,1.52-.64-1.22,2.2-4.52,11.9-11.64,2.35-.85,4.75-1.81,7.18-2.87,3.77-1.66,10.8-4.84,18.89-10.22,6.45-2.74,11.98-5.24,16.53-7.37,9.13-4.27,16.49-8.05,17.66-6.45.92,1.27-2.05,5.84-5.79,8.61-3.8,2.82-6.1,2.08-8.83,4.99-2.54,2.73-3.96,7.07-2.74,8.22,1.91,1.8,10.6-3.81,16.13-8.52,12.38-10.56,18.09-24.48,21.91-34.09,4.73-11.88,5.17-17.91,12.18-25.87,3.04-3.46,7.48-8.37,13.09-8.22,2.15.06,4.77.87,7.93,3.9,2.49,5.3,2.32,11.97.71,20.49Z"/>
</svg>