<?xml version="1.0" encoding="UTF-8"?>
<svg id="Layer_1" xmlns="http://www.w3.org/2000/svg" version="1.1" viewBox="0 0 190 430">
  <!-- Generator: Adobe Illustrator 29.5.1, SVG Export Plug-In . SVG Version: 2.1.0 Build 141)  -->
  <defs>
    <style>
      .st0 {
        fill: #ecfcca;
      }

      .st1 {
        fill: #ff2056;
      }

      .st2 {
        fill: #292524;
      }

      .st3 {
        fill: #dcfce7;
      }

      .st4 {
        fill: #5ea500;
      }
    </style>
  </defs>
  <g>
    <path class="st3" d="M96.37,304.83c-47.15,0-85.38,7.19-85.38,16.08l.3,1.34,4.32,19.33h0s.31,1.4.31,1.4l13.51,60.46c0,11.21,29.97,20.3,66.94,20.3s66.95-9.09,66.95-20.3l13.49-60.42v-.02c.22-.47.33-.95.33-1.43v-.02l4.31-19.31c.2-.44.3-.89.3-1.34,0-8.89-38.22-16.08-85.38-16.08Z"/>
    <path class="st1" d="M175.95,346.87l-12.63,56.57c0,11.21-29.97,20.3-66.95,20.3s-66.94-9.09-66.94-20.3l-11.27-50.45c7.94-4.2,10.44-14.19,22.33-14.19,15.04,0,15.04,16,30.09,16s15.04-16,30.09-16,15.04,16,30.08,16,15.05-16,30.1-16c7.56,0,11.32,4.05,15.1,8.07Z"/>
  </g>
  <g>
    <path class="st1" d="M155.72,253.05c-8.24-5.39-32.18-19.5-65.19-17.84-26.13,1.32-44.99,11.86-53.52,17.38l59.64,94.92,59.08-94.47Z"/>
    <path class="st0" d="M155.72,253.05c-8.24-5.39-32.18-19.5-65.19-17.84-26.13,1.32-44.99,11.86-53.52,17.38l6.91,11c10.07-5.52,26.1-12.23,46.61-13.26,26.34-1.33,46.9,7.38,58.32,13.7l6.87-10.98Z"/>
    <path class="st4" d="M95.89,233.34c-1.79,0-3.6.04-5.45.14-24.29,1.23-42.98,10.28-54.38,17.66l1.89,2.91c11.04-7.15,29.15-15.92,52.67-17.11,30.15-1.52,53.14,10.35,64.15,17.56l1.9-2.9c-10.7-7-32.33-18.26-60.78-18.26Z"/>
    <path class="st2" d="M71.38,280.35c-.14,1.79-.34,7.62-1.56,7.44-.75-.24-1.16-.93-1.71-1.54-1.04-1.33-2.12-2.82-3.02-4.29-2.06-3.04-2.02-6.79,1.87-7.48,3.32-.49,4.64,2.73,4.41,5.77v.1Z"/>
    <path class="st2" d="M88.95,295.37c-.16,1.79-.46,7.61-1.68,7.41-.74-.25-1.15-.95-1.68-1.57-1.02-1.34-2.08-2.86-2.94-4.34-2.01-3.07-1.9-6.82,2-7.45,3.33-.44,4.59,2.8,4.31,5.84v.1Z"/>
    <path class="st2" d="M103.63,311.95c-1.28,1.26-5.26,5.52-6.06,4.59-.41-.67-.26-1.47-.27-2.28.09-1.68.25-3.52.54-5.21.45-3.64,2.94-6.44,6.33-4.41,2.82,1.81,1.7,5.1-.47,7.24l-.07.07Z"/>
    <path class="st2" d="M99.22,268.69c-.8,1.61-3.19,6.92-4.26,6.3-.6-.5-.72-1.3-.99-2.07-.46-1.62-.9-3.42-1.17-5.11-.75-3.59.7-7.05,4.56-6.21,3.26.8,3.26,4.28,1.9,7.01l-.04.09Z"/>
    <path class="st2" d="M123.09,284.11c-1.28,1.26-5.25,5.52-6.06,4.59-.41-.67-.27-1.47-.27-2.28.09-1.68.25-3.52.54-5.21.44-3.64,2.94-6.45,6.32-4.41,2.82,1.81,1.71,5.1-.46,7.24l-.07.07Z"/>
  </g>
  <g>
    <path class="st1" d="M9.86,76.32c3.67-9.14,15.22-34.41,43.24-51.95,22.18-13.87,43.68-16.03,53.84-16.39l5.44,111.97L9.86,76.32Z"/>
    <path class="st0" d="M9.86,76.32c3.67-9.14,15.22-34.41,43.24-51.95,22.18-13.87,43.68-16.03,53.84-16.39l.63,12.98c-11.42,1.24-28.4,4.92-45.81,15.81-22.36,13.99-34.23,32.9-39.98,44.62l-11.92-5.07Z"/>
    <path class="st4" d="M47.64,25.91c1.47-1.02,2.98-2.03,4.55-3.01,20.62-12.9,41.12-16.17,54.7-16.65l.12,3.47c-13.15.46-33.01,3.63-52.98,16.12-25.59,16.01-37.64,38.9-42.55,51.12l-3.22-1.29c4.76-11.86,16.06-33.48,39.39-49.76Z"/>
    <path class="st2" d="M94.64,50.43c1.14,1.39,4.64,6.05,5.54,5.21.48-.62.42-1.43.52-2.24.09-1.68.13-3.53.02-5.24-.05-3.67-2.23-6.72-5.82-5.06-3,1.5-2.24,4.89-.31,7.25l.06.08Z"/>
    <path class="st2" d="M88.84,72.8c1.16,1.37,4.73,5.97,5.62,5.12.47-.63.4-1.44.48-2.25.07-1.68.07-3.53-.07-5.24-.11-3.67-2.34-6.68-5.9-4.96-2.98,1.55-2.16,4.93-.19,7.26l.06.08Z"/>
    <path class="st2" d="M86.29,94.79c1.77.3,7.47,1.52,7.6.29-.05-.78-.62-1.35-1.08-2.03-1.03-1.33-2.22-2.74-3.43-3.96-2.45-2.73-6.1-3.6-7.71,0-1.28,3.1,1.53,5.16,4.53,5.67l.1.02Z"/>
    <path class="st2" d="M65.14,56.8c1.58.86,6.58,3.85,7.1,2.73.21-.76-.15-1.48-.37-2.27-.55-1.59-1.22-3.31-1.97-4.86-1.44-3.38-4.61-5.38-7.3-2.48-2.21,2.52-.22,5.37,2.46,6.83l.08.05Z"/>
    <path class="st2" d="M54.39,83.11c1.77.3,7.47,1.52,7.6.3-.05-.78-.62-1.35-1.08-2.03-1.03-1.33-2.22-2.74-3.43-3.97-2.45-2.73-6.1-3.6-7.71,0-1.28,3.1,1.52,5.16,4.53,5.67l.1.02Z"/>
  </g>
  <g>
    <path class="st1" d="M172.49,156.71c-4.9-8.55-19.82-31.98-49.99-45.48-23.88-10.68-45.47-9.85-55.58-8.8l10.06,111.65,95.52-57.36Z"/>
    <path class="st0" d="M172.49,156.71c-4.9-8.55-19.82-31.98-49.99-45.48-23.88-10.68-45.47-9.85-55.58-8.8l1.17,12.94c11.48-.34,28.81.95,47.55,9.33,24.07,10.77,38.44,27.87,45.75,38.68l11.11-6.67Z"/>
    <path class="st4" d="M128.12,111.99c-1.6-.81-3.23-1.6-4.92-2.35-22.2-9.93-42.96-10.34-56.47-8.94l.36,3.45c13.09-1.36,33.2-.96,54.69,8.66,27.56,12.32,42.65,33.34,49.2,44.76l3.01-1.72c-6.36-11.09-20.53-30.94-45.87-43.85Z"/>
    <path class="st2" d="M84.95,142.76c-.93,1.54-3.76,6.63-4.76,5.92-.56-.55-.61-1.36-.82-2.15-.33-1.65-.61-3.48-.74-5.19-.45-3.64,1.29-6.97,5.06-5.81,3.18,1.07,2.89,4.54,1.31,7.14l-.05.09Z"/>
    <path class="st2" d="M93.78,164.11c-.96,1.52-3.86,6.57-4.86,5.85-.55-.56-.59-1.37-.78-2.16-.3-1.66-.55-3.49-.66-5.2-.39-3.65,1.4-6.94,5.16-5.73,3.16,1.12,2.82,4.58,1.19,7.16l-.05.09Z"/>
    <path class="st2" d="M99.33,185.55c-1.71.54-7.19,2.53-7.48,1.33-.06-.78.43-1.43.79-2.16.84-1.46,1.82-3.02,2.85-4.4,2.05-3.04,5.55-4.41,7.64-1.06,1.69,2.9-.8,5.32-3.71,6.24l-.09.03Z"/>
    <path class="st2" d="M115.04,145c-1.45,1.07-5.99,4.72-6.65,3.68-.31-.72-.05-1.49.05-2.3.32-1.65.75-3.45,1.28-5.08.96-3.54,3.83-5.96,6.89-3.46,2.54,2.19.96,5.29-1.49,7.1l-.08.06Z"/>
    <path class="st2" d="M129.32,169.57c-1.71.55-7.19,2.54-7.48,1.34-.06-.78.43-1.43.79-2.16.84-1.46,1.82-3.02,2.85-4.4,2.05-3.05,5.54-4.41,7.64-1.06,1.7,2.89-.79,5.32-3.7,6.24l-.09.03Z"/>
  </g>
</svg>